<?xml version="1.0" encoding="UTF-8"?> <svg xmlns="http://www.w3.org/2000/svg" xmlns:xlink="http://www.w3.org/1999/xlink" version="1.1" x="0px" y="0px" viewBox="0 0 1185.5 346.8" style="enable-background:new 0 0 1185.5 346.8;" xml:space="preserve"> <style type="text/css"> .st0{display:none;} .st1{display:inline;fill:none;stroke:#FFFFFF;stroke-width:1.25;stroke-miterlimit:10;} .st2{display:inline;fill:none;stroke:#000000;stroke-width:0.25;stroke-miterlimit:10;} .st3{display:inline;} .st4{display:inline;fill:none;stroke:#FFFFFF;stroke-width:0.25;stroke-miterlimit:10;} .st5{display:inline;fill:#00AEEF;} .st6{display:inline;fill:none;stroke:#000000;stroke-width:0.5;stroke-miterlimit:10;} .st7{display:inline;fill:#EC008C;} .st8{display:inline;fill:#FFF200;} .st9{display:inline;fill:#2E3192;} .st10{display:inline;fill:#ED1C24;} .st11{display:inline;fill:#00A651;} .st12{display:inline;fill:#363639;} .st13{display:inline;fill:none;stroke:#FFFFFF;stroke-width:0.5;stroke-miterlimit:10;} .st14{display:inline;fill:#100906;} .st15{display:inline;fill:#28211F;} .st16{display:inline;fill:#3C3533;} .st17{display:inline;fill:#524B48;} .st18{display:inline;fill:#6C6361;} .st19{display:inline;fill:#88817F;} .st20{display:inline;fill:#A9A3A1;} .st21{display:inline;fill:#CECAC8;} .st22{display:inline;fill:none;stroke:#FFFFFF;stroke-width:0.4;stroke-miterlimit:10;} .st23{display:inline;fill:#FFFFFF;} .st24{display:inline;fill:none;stroke:#000000;stroke-width:0.3;stroke-miterlimit:10;} .st25{clip-path:url(#SVGID_00000178179022758759108770000000756515613317675925_);} .st26{clip-path:url(#SVGID_00000149355052814632660440000015483572989925316278_);} .st27{clip-path:url(#SVGID_00000107555996818130977430000010613300194888862341_);} .st28{clip-path:url(#SVGID_00000005956356355175781310000010601577466417243532_);} .st29{clip-path:url(#SVGID_00000043454487432590879050000011572350903831162542_);} .st30{clip-path:url(#SVGID_00000114043147306486086170000007531017676313138833_);} .st31{clip-path:url(#SVGID_00000037650776414658597340000017493158713071218587_);} .st32{clip-path:url(#SVGID_00000050635551315194640020000004689265702425696386_);} .st33{clip-path:url(#SVGID_00000022559553925293029590000011989839849318297788_);} .st34{clip-path:url(#SVGID_00000176044728447426418020000001988724907116797862_);} .st35{clip-path:url(#SVGID_00000124119704505302457890000002672836524559450505_);} .st36{clip-path:url(#SVGID_00000005231175784475706280000005236005590424009625_);} .st37{clip-path:url(#SVGID_00000070810543887546948830000005938464028601876404_);} .st38{clip-path:url(#SVGID_00000121261954430590043660000004785186491253031313_);} .st39{clip-path:url(#SVGID_00000065065713860349831800000000383353905116085415_);} .st40{clip-path:url(#SVGID_00000087408194049522115180000006312981438662173864_);} .st41{clip-path:url(#SVGID_00000039129308648656848870000016278258432359687557_);} .st42{clip-path:url(#SVGID_00000130615618301031362710000007386061518173490067_);} .st43{clip-path:url(#SVGID_00000066513376549086700920000018332908711044419994_);} .st44{clip-path:url(#SVGID_00000178916484236958729100000011565033731559302079_);} .st45{clip-path:url(#SVGID_00000040565824717612150880000016747223615249277059_);} .st46{clip-path:url(#SVGID_00000172432697299758923030000003235688486013897129_);} .st47{clip-path:url(#SVGID_00000165227634218500068330000007970677257432846755_);} .st48{clip-path:url(#SVGID_00000140734151992473128850000010155837134979201174_);} .st49{clip-path:url(#SVGID_00000175292378659843480030000000812195518049304761_);} .st50{clip-path:url(#SVGID_00000142158171265585702880000001933637771541771664_);} .st51{clip-path:url(#SVGID_00000128450391925989219290000008914133993744208516_);} .st52{clip-path:url(#SVGID_00000072970003206367624870000003780431367822393517_);} .st53{clip-path:url(#SVGID_00000098901714018620903310000012670339983963845308_);} .st54{clip-path:url(#SVGID_00000044152611087359535390000015893496006522489475_);} .st55{clip-path:url(#SVGID_00000131328172997126434560000001782879094189070771_);} .st56{clip-path:url(#SVGID_00000143575366414611694460000006651870112531054739_);} .st57{clip-path:url(#SVGID_00000057862338654919217640000010721884315367646616_);} .st58{clip-path:url(#SVGID_00000124147318736235528740000003081993403310464899_);} .st59{clip-path:url(#SVGID_00000091007245340526367320000016756923293814241158_);} .st60{clip-path:url(#SVGID_00000014594595852939671590000007563873961191585165_);} .st61{clip-path:url(#SVGID_00000131331115853329551630000003326554203589333647_);} .st62{clip-path:url(#SVGID_00000053544735763305696670000018303410128846207907_);} .st63{clip-path:url(#SVGID_00000065797289706356416750000000502482140271911083_);} .st64{clip-path:url(#SVGID_00000135660835517989636000000002340922908609825722_);} .st65{clip-path:url(#SVGID_00000065766339927038984860000015791108518458836905_);} .st66{clip-path:url(#SVGID_00000182523267100635172030000003768277396113875074_);} .st67{clip-path:url(#SVGID_00000056386531694533414680000009011169562172260279_);} .st68{clip-path:url(#SVGID_00000066492278623161592450000001657779695951089814_);} .st69{clip-path:url(#SVGID_00000139991130639257751430000011648264169841227671_);} .st70{clip-path:url(#SVGID_00000058565094645620778320000005016829239215674771_);} .st71{clip-path:url(#SVGID_00000174578180238079111300000005821144454233778366_);} .st72{clip-path:url(#SVGID_00000031202378373998565410000007661664119794075830_);} .st73{clip-path:url(#SVGID_00000031904616233915857500000012408519006226395791_);} .st74{clip-path:url(#SVGID_00000175289820435417558250000003854814730582185642_);} .st75{clip-path:url(#SVGID_00000006696969257474320840000009231596329929947572_);} .st76{clip-path:url(#SVGID_00000018917577487157098580000009609918701331892153_);} .st77{clip-path:url(#SVGID_00000068645942181273616220000015573236796843750308_);} .st78{clip-path:url(#SVGID_00000005964502708061295880000012337233271996617654_);} .st79{clip-path:url(#SVGID_00000072263874510741586110000014726438618349212049_);} .st80{clip-path:url(#SVGID_00000118374967167335578820000007468034192199785859_);} .st81{clip-path:url(#SVGID_00000100373197026958359090000006365839885995517617_);} .st82{clip-path:url(#SVGID_00000106124441937940289140000007503861088658920879_);} .st83{clip-path:url(#SVGID_00000148622338283303762520000016200498073090656426_);} .st84{clip-path:url(#SVGID_00000108298018916416699990000004425011094533065639_);} .st85{clip-path:url(#SVGID_00000138531029062528086760000003679726454055462035_);} .st86{clip-path:url(#SVGID_00000123417656007513762790000000732516683477240462_);} .st87{clip-path:url(#SVGID_00000052786841687318056930000016392060386188489098_);} .st88{clip-path:url(#SVGID_00000178175310805533706160000002857434544782708924_);} .st89{clip-path:url(#SVGID_00000177443211924979969650000011717361072879393943_);} .st90{clip-path:url(#SVGID_00000031191910991970232980000002417088924161265078_);} .st91{clip-path:url(#SVGID_00000142157302635603376800000018249038950314712498_);} .st92{clip-path:url(#SVGID_00000122704398578353462660000016913456188341708989_);} .st93{clip-path:url(#SVGID_00000093885405692018310980000014537887666719600041_);} .st94{clip-path:url(#SVGID_00000043451101134198487890000010065308699166241983_);} .st95{clip-path:url(#SVGID_00000023985009089418167210000014705429928462148022_);} .st96{clip-path:url(#SVGID_00000026152253376980737370000007601452909896949121_);} .st97{fill:#6F7273;} .st98{display:inline;fill:#E11D37;} .st99{font-family:'DroidSans';} .st100{font-size:307.7722px;} .st101{fill:#E11D37;} .st102{fill:none;} .st103{font-family:'D-DINExp';} </style> <g id="template" class="st0"> <path class="st1" d="M1489.3,319.8v27 M1489.3,27V0 M-238.7,319.8v27 M-238.7,27V0 M1495.3,313.8h27 M-244.7,313.8h-27 M1495.3,33 h27 M-244.7,33h-27"></path> <path class="st2" d="M1489.3,319.8v27 M1489.3,27V0 M-238.7,319.8v27 M-238.7,27V0 M1495.3,313.8h27 M-244.7,313.8h-27 M1495.3,33 h27 M-244.7,33h-27"></path> <circle class="st1" cx="-220.7" cy="13.5" r="6"></circle> <line class="st1" x1="-229.7" y1="13.5" x2="-211.7" y2="13.5"></line> <line class="st1" x1="-220.7" y1="4.5" x2="-220.7" y2="22.5"></line> <circle class="st1" cx="-220.7" cy="13.5" r="3"></circle> <circle class="st2" cx="-220.7" cy="13.5" r="6"></circle> <line class="st2" x1="-229.7" y1="13.5" x2="-211.7" y2="13.5"></line> <line class="st2" x1="-220.7" y1="4.5" x2="-220.7" y2="22.5"></line> <path class="st3" d="M-217.7,13.5c0,1.7-1.3,3-3,3s-3-1.3-3-3c0-1.7,1.3-3,3-3S-217.7,11.8-217.7,13.5"></path> <line class="st4" x1="-223.7" y1="13.5" x2="-217.7" y2="13.5"></line> <line class="st4" x1="-220.7" y1="10.5" x2="-220.7" y2="16.5"></line> <circle class="st1" cx="1471.3" cy="13.5" r="6"></circle> <line class="st1" x1="1462.3" y1="13.5" x2="1480.3" y2="13.5"></line> <line class="st1" x1="1471.3" y1="4.5" x2="1471.3" y2="22.5"></line> <circle class="st1" cx="1471.3" cy="13.5" r="3"></circle> <circle class="st2" cx="1471.3" cy="13.5" r="6"></circle> <line class="st2" x1="1462.3" y1="13.5" x2="1480.3" y2="13.5"></line> <line class="st2" x1="1471.3" y1="4.5" x2="1471.3" y2="22.5"></line> <path class="st3" d="M1474.3,13.5c0,1.7-1.3,3-3,3c-1.7,0-3-1.3-3-3c0-1.7,1.3-3,3-3C1473,10.5,1474.3,11.8,1474.3,13.5"></path> <line class="st4" x1="1468.3" y1="13.5" x2="1474.3" y2="13.5"></line> <line class="st4" x1="1471.3" y1="10.5" x2="1471.3" y2="16.5"></line> <circle class="st1" cx="-220.7" cy="333.3" r="6"></circle> <line class="st1" x1="-229.7" y1="333.3" x2="-211.7" y2="333.3"></line> <line class="st1" x1="-220.7" y1="324.3" x2="-220.7" y2="342.3"></line> <circle class="st1" cx="-220.7" cy="333.3" r="3"></circle> <circle class="st2" cx="-220.7" cy="333.3" r="6"></circle> <line class="st2" x1="-229.7" y1="333.3" x2="-211.7" y2="333.3"></line> <line class="st2" x1="-220.7" y1="324.3" x2="-220.7" y2="342.3"></line> <path class="st3" d="M-217.7,333.3c0,1.7-1.3,3-3,3s-3-1.3-3-3s1.3-3,3-3S-217.7,331.6-217.7,333.3"></path> <line class="st4" x1="-223.7" y1="333.3" x2="-217.7" y2="333.3"></line> <line class="st4" x1="-220.7" y1="330.3" x2="-220.7" y2="336.3"></line> <circle class="st1" cx="1471.3" cy="333.3" r="6"></circle> <line class="st1" x1="1462.3" y1="333.3" x2="1480.3" y2="333.3"></line> <line class="st1" x1="1471.3" y1="324.3" x2="1471.3" y2="342.3"></line> <circle class="st1" cx="1471.3" cy="333.3" r="3"></circle> <circle class="st2" cx="1471.3" cy="333.3" r="6"></circle> <line class="st2" x1="1462.3" y1="333.3" x2="1480.3" y2="333.3"></line> <line class="st2" x1="1471.3" y1="324.3" x2="1471.3" y2="342.3"></line> <path class="st3" d="M1474.3,333.3c0,1.7-1.3,3-3,3c-1.7,0-3-1.3-3-3s1.3-3,3-3C1473,330.3,1474.3,331.6,1474.3,333.3"></path> <line class="st4" x1="1468.3" y1="333.3" x2="1474.3" y2="333.3"></line> <line class="st4" x1="1471.3" y1="330.3" x2="1471.3" y2="336.3"></line> <circle class="st1" cx="-258.2" cy="51" r="6"></circle> <line class="st1" x1="-267.2" y1="51" x2="-249.2" y2="51"></line> <line class="st1" x1="-258.2" y1="42" x2="-258.2" y2="60"></line> <circle class="st1" cx="-258.2" cy="51" r="3"></circle> <circle class="st2" cx="-258.2" cy="51" r="6"></circle> <line class="st2" x1="-267.2" y1="51" x2="-249.2" y2="51"></line> <line class="st2" x1="-258.2" y1="42" x2="-258.2" y2="60"></line> <path class="st3" d="M-255.2,51c0,1.7-1.3,3-3,3s-3-1.3-3-3c0-1.7,1.3-3,3-3S-255.2,49.3-255.2,51"></path> <line class="st4" x1="-261.2" y1="51" x2="-255.2" y2="51"></line> <line class="st4" x1="-258.2" y1="48" x2="-258.2" y2="54"></line> <circle class="st1" cx="-258.2" cy="295.8" r="6"></circle> <line class="st1" x1="-267.2" y1="295.8" x2="-249.2" y2="295.8"></line> <line class="st1" x1="-258.2" y1="286.8" x2="-258.2" y2="304.8"></line> <circle class="st1" cx="-258.2" cy="295.8" r="3"></circle> <circle class="st2" cx="-258.2" cy="295.8" r="6"></circle> <line class="st2" x1="-267.2" y1="295.8" x2="-249.2" y2="295.8"></line> <line class="st2" x1="-258.2" y1="286.8" x2="-258.2" y2="304.8"></line> <path class="st3" d="M-255.2,295.8c0,1.7-1.3,3-3,3s-3-1.3-3-3c0-1.7,1.3-3,3-3S-255.2,294.1-255.2,295.8"></path> <line class="st4" x1="-261.2" y1="295.8" x2="-255.2" y2="295.8"></line> <line class="st4" x1="-258.2" y1="292.8" x2="-258.2" y2="298.8"></line> <circle class="st1" cx="1508.8" cy="51" r="6"></circle> <line class="st1" x1="1499.8" y1="51" x2="1517.8" y2="51"></line> <line class="st1" x1="1508.8" y1="42" x2="1508.8" y2="60"></line> <circle class="st1" cx="1508.8" cy="51" r="3"></circle> <circle class="st2" cx="1508.8" cy="51" r="6"></circle> <line class="st2" x1="1499.8" y1="51" x2="1517.8" y2="51"></line> <line class="st2" x1="1508.8" y1="42" x2="1508.8" y2="60"></line> <path class="st3" d="M1511.8,51c0,1.7-1.3,3-3,3c-1.7,0-3-1.3-3-3c0-1.7,1.3-3,3-3C1510.5,48,1511.8,49.3,1511.8,51"></path> <line class="st4" x1="1505.8" y1="51" x2="1511.8" y2="51"></line> <line class="st4" x1="1508.8" y1="48" x2="1508.8" y2="54"></line> <circle class="st1" cx="1508.8" cy="295.8" r="6"></circle> <line class="st1" x1="1499.8" y1="295.8" x2="1517.8" y2="295.8"></line> <line class="st1" x1="1508.8" y1="286.8" x2="1508.8" y2="304.8"></line> <circle class="st1" cx="1508.8" cy="295.8" r="3"></circle> <circle class="st2" cx="1508.8" cy="295.8" r="6"></circle> <line class="st2" x1="1499.8" y1="295.8" x2="1517.8" y2="295.8"></line> <line class="st2" x1="1508.8" y1="286.8" x2="1508.8" y2="304.8"></line> <path class="st3" d="M1511.8,295.8c0,1.7-1.3,3-3,3c-1.7,0-3-1.3-3-3c0-1.7,1.3-3,3-3C1510.5,292.8,1511.8,294.1,1511.8,295.8"></path> <line class="st4" x1="1505.8" y1="295.8" x2="1511.8" y2="295.8"></line> <line class="st4" x1="1508.8" y1="292.8" x2="1508.8" y2="298.8"></line> <rect x="-265.7" y="113.4" class="st5" width="15" height="15"></rect> <rect x="-265.7" y="113.4" class="st6" width="15" height="15"></rect> <text transform="matrix(1 0 0 1 -259.4082 122.115)" class="st3" style="font-family:'Courier'; font-size:3.5px;">C</text> <rect x="-265.7" y="128.4" class="st7" width="15" height="15"></rect> <rect x="-265.7" y="128.4" class="st6" width="15" height="15"></rect> <text transform="matrix(1 0 0 1 -259.4082 137.115)" class="st3" style="font-family:'Courier'; font-size:3.5px;">M</text> <rect x="-265.7" y="143.4" class="st8" width="15" height="15"></rect> <rect x="-265.7" y="143.4" class="st6" width="15" height="15"></rect> <text transform="matrix(1 0 0 1 -259.4082 152.115)" class="st3" style="font-family:'Courier'; font-size:3.5px;">Y</text> <rect x="-265.7" y="158.4" class="st9" width="15" height="15"></rect> <rect x="-265.7" y="158.4" class="st6" width="15" height="15"></rect> <text transform="matrix(1 0 0 1 -260.623 167.115)" class="st3" style="font-family:'Courier'; font-size:3.5px;">CM</text> <rect x="-265.7" y="173.4" class="st10" width="15" height="15"></rect> <rect x="-265.7" y="173.4" class="st6" width="15" height="15"></rect> <text transform="matrix(1 0 0 1 -260.623 182.115)" class="st3" style="font-family:'Courier'; font-size:3.5px;">MY</text> <rect x="-265.7" y="188.4" class="st11" width="15" height="15"></rect> <rect x="-265.7" y="188.4" class="st6" width="15" height="15"></rect> <text transform="matrix(1 0 0 1 -260.623 197.115)" class="st3" style="font-family:'Courier'; font-size:3.5px;">CY</text> <rect x="-265.7" y="203.4" class="st12" width="15" height="15"></rect> <rect x="-265.7" y="203.4" class="st6" width="15" height="15"></rect> <text transform="matrix(1 0 0 1 -261.8379 212.115)" class="st3" style="font-family:'Courier'; font-size:3.5px;">CMY</text> <rect x="-265.7" y="218.4" class="st3" width="15" height="15"></rect> <rect x="-265.7" y="218.4" class="st6" width="15" height="15"></rect> <text transform="matrix(1 0 0 1 -259.4082 227.115)" class="st3" style="font-family:'Courier'; font-size:3.5px;">K</text> <rect x="1501.3" y="113.4" class="st5" width="15" height="15"></rect> <rect x="1501.3" y="113.4" class="st6" width="15" height="15"></rect> <rect x="1501.3" y="128.4" class="st7" width="15" height="15"></rect> <rect x="1501.3" y="128.4" class="st6" width="15" height="15"></rect> <rect x="1501.3" y="143.4" class="st8" width="15" height="15"></rect> <rect x="1501.3" y="143.4" class="st6" width="15" height="15"></rect> <rect x="1501.3" y="158.4" class="st9" width="15" height="15"></rect> <rect x="1501.3" y="158.4" class="st6" width="15" height="15"></rect> <rect x="1501.3" y="173.4" class="st10" width="15" height="15"></rect> <rect x="1501.3" y="173.4" class="st6" width="15" height="15"></rect> <rect x="1501.3" y="188.4" class="st11" width="15" height="15"></rect> <rect x="1501.3" y="188.4" class="st6" width="15" height="15"></rect> <rect x="1501.3" y="203.4" class="st12" width="15" height="15"></rect> <rect x="1501.3" y="203.4" class="st6" width="15" height="15"></rect> <rect x="1501.3" y="218.4" class="st3" width="15" height="15"></rect> <rect x="1501.3" y="218.4" class="st6" width="15" height="15"></rect> <rect x="550.3" y="325.8" class="st3" width="15" height="15"></rect> <rect x="550.3" y="325.8" class="st13" width="15" height="15"></rect> <rect x="565.3" y="325.8" class="st3" width="15" height="15"></rect> <rect x="565.3" y="325.8" class="st13" width="15" height="15"></rect> <rect x="580.3" y="325.8" class="st14" width="15" height="15"></rect> <rect x="580.3" y="325.8" class="st13" width="15" height="15"></rect> <rect x="595.3" y="325.8" class="st15" width="15" height="15"></rect> <rect x="595.3" y="325.8" class="st13" width="15" height="15"></rect> <rect x="610.3" y="325.8" class="st16" width="15" height="15"></rect> <rect x="610.3" y="325.8" class="st13" width="15" height="15"></rect> <rect x="625.3" y="325.8" class="st17" width="15" height="15"></rect> <rect x="625.3" y="325.8" class="st13" width="15" height="15"></rect> <rect x="640.3" y="325.8" class="st18" width="15" height="15"></rect> <rect x="640.3" y="325.8" class="st13" width="15" height="15"></rect> <rect x="655.3" y="325.8" class="st19" width="15" height="15"></rect> <rect x="655.3" y="325.8" class="st13" width="15" height="15"></rect> <rect x="670.3" y="325.8" class="st20" width="15" height="15"></rect> <rect x="670.3" y="325.8" class="st13" width="15" height="15"></rect> <rect x="685.3" y="325.8" class="st21" width="15" height="15"></rect> <rect x="685.3" y="325.8" class="st13" width="15" height="15"></rect> <path class="st22" d="M-198,11.5c0,0,0.1,0,0.1-0.1c0,0,0-0.1,0.1-0.1l0-0.2c0,0,0,0,0,0c0,0,0,0,0,0c0-0.1,0-0.1-0.1-0.2 s-0.1-0.1-0.2-0.1c-0.1,0-0.1,0-0.2,0.1c0,0-0.1,0.1-0.1,0.2h-1.3l0.4-0.3c0.1-0.1,0.2-0.2,0.4-0.4c0.7-0.6,1-1.1,1-1.5 c0-0.3-0.1-0.6-0.3-0.8c-0.2-0.2-0.5-0.3-0.8-0.3c-0.2,0-0.4,0-0.6,0.1c-0.2,0.1-0.3,0.2-0.5,0.3c0,0-0.1,0.1-0.1,0.1 c0,0,0,0.1,0,0.2c0,0.1,0,0.2,0,0.2c0,0,0.1,0.1,0.2,0.1c0.1,0,0.2-0.1,0.2-0.2c0,0,0-0.1,0.1-0.1c0.1-0.1,0.2-0.2,0.3-0.2 c0.1,0,0.2-0.1,0.4-0.1c0.2,0,0.3,0.1,0.5,0.2c0.1,0.1,0.2,0.3,0.2,0.5c0,0.3-0.3,0.8-1,1.4c-0.1,0.1-0.2,0.2-0.2,0.2l-0.1,0.1 c-0.4,0.4-0.6,0.6-0.6,0.7c0,0.1,0,0.2,0.1,0.2c0,0,0.1,0.1,0.2,0.1H-198z"></path> <path class="st22" d="M-194.4,11.1c0.2-0.3,0.3-0.8,0.3-1.4c0-0.6-0.1-1.1-0.3-1.4c-0.2-0.3-0.5-0.5-0.9-0.5 c-0.4,0-0.7,0.2-0.9,0.5c-0.2,0.3-0.3,0.8-0.3,1.4c0,0.6,0.1,1.1,0.3,1.4c0.2,0.3,0.5,0.5,0.9,0.5 C-194.9,11.6-194.6,11.4-194.4,11.1z M-194.8,8.5c0.1,0.3,0.2,0.6,0.2,1.1c0,0.5-0.1,0.9-0.2,1.1c-0.1,0.3-0.3,0.4-0.5,0.4 c-0.2,0-0.4-0.1-0.5-0.4c-0.1-0.3-0.2-0.6-0.2-1.1c0-0.5,0.1-0.9,0.2-1.1c0.1-0.3,0.3-0.4,0.5-0.4C-195.1,8.1-194.9,8.3-194.8,8.5z "></path> <path class="st22" d="M-188.1,11.1V9.3h1c0.1,0,0.1,0,0.2-0.1s0.1-0.1,0.1-0.2c0-0.1,0-0.1-0.1-0.2c0,0-0.1-0.1-0.2-0.1h-1V8.7 c0-0.2,0-0.4,0.1-0.5c0.1-0.1,0.3-0.1,0.5-0.1c0.1,0,0.2,0,0.3,0c0.1,0,0.2,0,0.3,0c0.1,0,0.1,0,0.2-0.1c0,0,0.1-0.1,0.1-0.1 c0-0.1-0.1-0.2-0.2-0.2c-0.1,0-0.3-0.1-0.5-0.1c-0.4,0-0.8,0.1-1,0.2c-0.2,0.2-0.3,0.4-0.3,0.8v0.2h-0.5c-0.1,0-0.1,0-0.2,0.1 s-0.1,0.1-0.1,0.2c0,0.1,0,0.1,0.1,0.2c0,0,0.1,0.1,0.2,0.1h0.5v1.8h-0.5c-0.1,0-0.1,0-0.2,0.1c0,0-0.1,0.1-0.1,0.2 c0,0.1,0,0.1,0.1,0.2c0,0,0.1,0.1,0.2,0.1h1.9c0.1,0,0.1,0,0.2-0.1c0,0,0.1-0.1,0.1-0.2c0-0.1,0-0.1-0.1-0.2c0,0-0.1-0.1-0.2-0.1 H-188.1z"></path> <path class="st22" d="M-183.4,9.1c-0.3-0.3-0.7-0.4-1.1-0.4s-0.8,0.1-1.1,0.4c-0.3,0.3-0.4,0.6-0.4,1s0.1,0.8,0.4,1 c0.3,0.3,0.7,0.4,1.1,0.4c0.5,0,0.8-0.1,1.1-0.4c0.3-0.3,0.4-0.6,0.4-1C-183,9.7-183.1,9.4-183.4,9.1z M-185.2,10.9 c-0.2-0.2-0.3-0.4-0.3-0.7c0-0.3,0.1-0.5,0.3-0.7c0.2-0.2,0.4-0.3,0.7-0.3s0.5,0.1,0.7,0.3c0.2,0.2,0.3,0.4,0.3,0.7 c0,0.3-0.1,0.5-0.3,0.7c-0.2,0.2-0.4,0.3-0.7,0.3S-185,11.1-185.2,10.9z"></path> <path class="st22" d="M-179.8,9.1c-0.3-0.3-0.7-0.4-1.1-0.4s-0.8,0.1-1.1,0.4c-0.3,0.3-0.4,0.6-0.4,1s0.1,0.8,0.4,1 c0.3,0.3,0.7,0.4,1.1,0.4c0.5,0,0.8-0.1,1.1-0.4c0.3-0.3,0.4-0.6,0.4-1C-179.4,9.7-179.5,9.4-179.8,9.1z M-181.6,10.9 c-0.2-0.2-0.3-0.4-0.3-0.7c0-0.3,0.1-0.5,0.3-0.7c0.2-0.2,0.4-0.3,0.7-0.3s0.5,0.1,0.7,0.3c0.2,0.2,0.3,0.4,0.3,0.7 c0,0.3-0.1,0.5-0.3,0.7c-0.2,0.2-0.4,0.3-0.7,0.3S-181.4,11.1-181.6,10.9z"></path> <path class="st22" d="M-177.6,9V8.4c0-0.2,0-0.3-0.1-0.3c0,0-0.1-0.1-0.2-0.1C-178,8-178,8-178,8c0,0-0.1,0.1-0.1,0.2v0.2V9h-0.3 c-0.2,0-0.3,0-0.3,0c-0.1,0-0.1,0.1-0.1,0.2c0,0.1,0,0.1,0.1,0.2c0,0,0.1,0,0.2,0h0.5v1v0.1c0,0.2,0,0.3,0,0.4c0,0.1,0,0.2,0.1,0.2 c0.1,0.1,0.2,0.3,0.3,0.3c0.2,0.1,0.3,0.1,0.6,0.1c0.1,0,0.3,0,0.4-0.1c0.2,0,0.3-0.1,0.5-0.2c0.1,0,0.2-0.1,0.2-0.1 c0,0,0.1-0.1,0.1-0.2c0-0.1,0-0.1-0.1-0.1c0,0-0.1-0.1-0.1-0.1c-0.1,0-0.2,0.1-0.5,0.2c-0.2,0.1-0.5,0.2-0.6,0.2 c-0.2,0-0.3-0.1-0.4-0.2c-0.1-0.1-0.1-0.3-0.1-0.6v-1h1.2c0.1,0,0.1,0,0.2-0.1c0,0,0.1-0.1,0.1-0.2c0-0.1,0-0.1-0.1-0.2 c0,0-0.1-0.1-0.2-0.1H-177.6z"></path> <path class="st22" d="M-171.2,8.4h0.8v2.6h-0.5h-0.1c-0.1,0-0.2,0-0.2,0c0,0-0.1,0.1-0.1,0.2c0,0.1,0,0.1,0.1,0.2 c0,0,0.1,0.1,0.2,0.1h1.6c0.1,0,0.1,0,0.2-0.1c0,0,0.1-0.1,0.1-0.2c0-0.1,0-0.1-0.1-0.2c0,0-0.1,0-0.2,0h-0.1h-0.5V8.4h0.8l0,0.8 c0,0.1,0,0.2,0.1,0.3c0,0,0.1,0.1,0.2,0.1c0.1,0,0.1,0,0.2-0.1c0,0,0.1-0.1,0.1-0.2c0,0,0,0,0,0c0,0,0-0.1,0-0.1l0-1 c0-0.1,0-0.1-0.1-0.2c0,0-0.1,0-0.2,0h-2.5c-0.1,0-0.1,0-0.2,0c0,0-0.1,0.1-0.1,0.2l0,1c0,0,0,0.1,0,0.1c0,0.1,0,0.1,0.1,0.2 c0,0,0.1,0.1,0.2,0.1c0.1,0,0.1,0,0.2-0.1c0,0,0-0.1,0.1-0.3L-171.2,8.4z"></path> <path class="st22" d="M-167.1,9.3c0.2-0.1,0.4-0.2,0.7-0.2c0.2,0,0.4,0.1,0.6,0.2c0.2,0.1,0.3,0.3,0.3,0.6h-1.9 C-167.4,9.6-167.3,9.5-167.1,9.3z M-165.5,10.3L-165.5,10.3c0.2,0,0.4,0,0.4-0.1c0,0,0.1-0.1,0.1-0.2c0-0.4-0.1-0.7-0.4-0.9 c-0.3-0.2-0.6-0.4-1-0.4c-0.5,0-0.8,0.1-1.1,0.4c-0.3,0.3-0.4,0.6-0.4,1c0,0.4,0.1,0.8,0.4,1c0.3,0.3,0.6,0.4,1.1,0.4 c0.2,0,0.4,0,0.6-0.1c0.2,0,0.4-0.1,0.6-0.2c0.1,0,0.2-0.1,0.2-0.1S-165,11-165,11c0-0.1,0-0.1-0.1-0.1c0,0-0.1-0.1-0.1-0.1 c-0.1,0-0.2,0.1-0.5,0.2c-0.3,0.1-0.5,0.2-0.7,0.2c-0.3,0-0.5-0.1-0.7-0.2c-0.2-0.2-0.3-0.4-0.3-0.7H-165.5z"></path> <path class="st22" d="M-161.8,11.2c0,0.1,0,0.2,0.1,0.2s0.1,0.1,0.2,0.1h0.4c0.1,0,0.1,0,0.2-0.1c0,0,0.1-0.1,0.1-0.2 c0-0.1,0-0.1-0.1-0.2s-0.1,0-0.2,0h0V9.8c0-0.4-0.1-0.6-0.2-0.8c-0.1-0.2-0.3-0.2-0.6-0.2c-0.1,0-0.3,0-0.4,0.1 c-0.1,0.1-0.2,0.1-0.3,0.3c0-0.1-0.1-0.2-0.2-0.3c-0.1-0.1-0.2-0.1-0.3-0.1c-0.1,0-0.2,0-0.3,0.1c-0.1,0-0.2,0.1-0.3,0.2 c0-0.1,0-0.1,0-0.1c0,0-0.1,0-0.1,0h-0.4c-0.1,0-0.1,0-0.2,0.1c0,0-0.1,0.1-0.1,0.2c0,0.1,0,0.1,0.1,0.2c0,0,0.1,0,0.3,0h0.1v1.9 h-0.1c-0.1,0-0.2,0-0.3,0c0,0-0.1,0.1-0.1,0.2c0,0.1,0,0.1,0.1,0.2c0,0,0.1,0.1,0.2,0.1h0.8c0.1,0,0.2,0,0.2,0c0,0,0-0.1,0-0.2 c0-0.1,0-0.1-0.1-0.2c0,0-0.1,0-0.2,0h-0.1V9.5c0.1-0.1,0.1-0.2,0.2-0.2c0.1-0.1,0.2-0.1,0.2-0.1c0.1,0,0.2,0,0.3,0.1 c0.1,0.1,0.1,0.2,0.1,0.3v0.2v1.2v0.1c0,0.1,0,0.2,0,0.3s0.1,0.1,0.2,0.1h0.4c0.1,0,0.1,0,0.2-0.1c0,0,0.1-0.1,0.1-0.2 c0-0.1,0-0.1-0.1-0.2c0,0-0.1,0-0.2,0h-0.1V9.9c0-0.2,0-0.4,0.1-0.5c0.1-0.1,0.2-0.2,0.3-0.2c0.1,0,0.2,0,0.3,0.1 c0,0.1,0.1,0.3,0.1,0.6V11.2z"></path> <path class="st22" d="M-159.8,10.8c-0.2-0.2-0.3-0.4-0.3-0.7c0-0.3,0.1-0.5,0.3-0.7s0.4-0.3,0.7-0.3c0.3,0,0.5,0.1,0.7,0.3 c0.2,0.2,0.3,0.4,0.3,0.7c0,0.3-0.1,0.5-0.3,0.7c-0.2,0.2-0.4,0.3-0.7,0.3C-159.4,11.1-159.6,11-159.8,10.8z M-160,11.1 c0.1,0.1,0.3,0.2,0.4,0.3c0.2,0.1,0.4,0.1,0.6,0.1c0.4,0,0.7-0.1,1-0.4c0.2-0.2,0.4-0.6,0.4-0.9c0-0.4-0.1-0.7-0.4-1 c-0.3-0.3-0.6-0.4-1-0.4c-0.2,0-0.4,0-0.5,0.1c-0.2,0.1-0.3,0.2-0.4,0.3V8.9c0,0,0-0.1,0-0.1c0,0-0.1,0-0.1,0h-0.4 c-0.1,0-0.1,0-0.2,0.1c0,0-0.1,0.1-0.1,0.2c0,0.1,0,0.1,0.1,0.2c0,0,0.1,0,0.3,0h0.1v3h-0.1c-0.1,0-0.2,0-0.3,0 c-0.1,0-0.1,0.1-0.1,0.2c0,0.1,0,0.1,0.1,0.2c0,0,0.1,0.1,0.2,0.1h1.3c0.1,0,0.2,0,0.2,0c0,0,0.1-0.1,0.1-0.2c0-0.1,0-0.1-0.1-0.2 s-0.1-0.1-0.2-0.1h-0.7V11.1z"></path> <path class="st22" d="M-155.9,11.1h-0.8c-0.1,0-0.1,0-0.2,0.1s-0.1,0.1-0.1,0.2c0,0.1,0,0.1,0.1,0.2c0,0,0.1,0.1,0.2,0.1h2.2 c0.1,0,0.2,0,0.2,0c0,0,0.1-0.1,0.1-0.2c0-0.1,0-0.1-0.1-0.2c0,0-0.1,0-0.2,0h-0.9V7.8c0,0,0-0.1,0-0.1c0,0-0.1,0-0.1,0h-1 c-0.1,0-0.1,0-0.2,0.1c0,0-0.1,0.1-0.1,0.2c0,0.1,0,0.1,0.1,0.2c0,0,0.2,0,0.4,0h0.5V11.1z"></path> <path class="st22" d="M-151.4,11.3c0,0.1,0,0.1,0.1,0.1s0.1,0,0.1,0h0.5c0.1,0,0.1,0,0.2-0.1c0,0,0.1-0.1,0.1-0.2 c0-0.1,0-0.1-0.1-0.2c0,0-0.1,0-0.3,0h-0.1V9.8c0-0.3-0.1-0.6-0.3-0.8c-0.2-0.2-0.4-0.3-0.8-0.3c-0.3,0-0.6,0-0.8,0.1 c-0.2,0.1-0.3,0.2-0.3,0.3c0,0.1,0,0.1,0.1,0.2c0,0,0.1,0.1,0.1,0.1c0.1,0,0.2,0,0.4-0.1c0.2-0.1,0.4-0.1,0.5-0.1 c0.2,0,0.4,0.1,0.5,0.2c0.1,0.1,0.2,0.3,0.2,0.5v0c-0.1,0-0.2-0.1-0.4-0.1c-0.1,0-0.2,0-0.3,0c-0.4,0-0.8,0.1-1,0.3 c-0.2,0.2-0.4,0.4-0.4,0.7c0,0.3,0.1,0.5,0.3,0.6c0.2,0.2,0.4,0.2,0.7,0.2c0.2,0,0.4,0,0.6-0.1c0.2-0.1,0.4-0.2,0.5-0.3 L-151.4,11.3z M-151.4,10.5c0,0.1-0.1,0.3-0.3,0.4s-0.4,0.2-0.7,0.2c-0.2,0-0.3,0-0.4-0.1c-0.1-0.1-0.2-0.2-0.2-0.3 c0-0.2,0.1-0.3,0.3-0.4c0.2-0.1,0.4-0.2,0.7-0.2c0.1,0,0.2,0,0.3,0s0.2,0,0.3,0.1V10.5z"></path> <path class="st22" d="M-148.8,9V8.4c0-0.2,0-0.3-0.1-0.3c0,0-0.1-0.1-0.2-0.1c-0.1,0-0.1,0-0.2,0.1c0,0-0.1,0.1-0.1,0.2v0.2V9h-0.3 c-0.2,0-0.3,0-0.3,0c-0.1,0-0.1,0.1-0.1,0.2c0,0.1,0,0.1,0.1,0.2c0,0,0.1,0,0.2,0h0.5v1v0.1c0,0.2,0,0.3,0,0.4c0,0.1,0,0.2,0.1,0.2 c0.1,0.1,0.2,0.3,0.3,0.3c0.2,0.1,0.3,0.1,0.6,0.1c0.1,0,0.3,0,0.4-0.1c0.2,0,0.3-0.1,0.5-0.2c0.1,0,0.2-0.1,0.2-0.1 c0,0,0.1-0.1,0.1-0.2c0-0.1,0-0.1-0.1-0.1c0,0-0.1-0.1-0.1-0.1c-0.1,0-0.2,0.1-0.5,0.2c-0.2,0.1-0.5,0.2-0.6,0.2 c-0.2,0-0.3-0.1-0.4-0.2c-0.1-0.1-0.1-0.3-0.1-0.6v-1h1.2c0.1,0,0.1,0,0.2-0.1c0,0,0.1-0.1,0.1-0.2c0-0.1,0-0.1-0.1-0.2 c0,0-0.1-0.1-0.2-0.1H-148.8z"></path> <path class="st22" d="M-145.5,9.3c0.2-0.1,0.4-0.2,0.7-0.2c0.2,0,0.4,0.1,0.6,0.2c0.2,0.1,0.3,0.3,0.3,0.6h-1.9 C-145.8,9.6-145.7,9.5-145.5,9.3z M-143.9,10.3L-143.9,10.3c0.2,0,0.4,0,0.4-0.1c0,0,0.1-0.1,0.1-0.2c0-0.4-0.1-0.7-0.4-0.9 c-0.3-0.2-0.6-0.4-1-0.4c-0.5,0-0.8,0.1-1.1,0.4c-0.3,0.3-0.4,0.6-0.4,1c0,0.4,0.1,0.8,0.4,1c0.3,0.3,0.6,0.4,1.1,0.4 c0.2,0,0.4,0,0.6-0.1c0.2,0,0.4-0.1,0.6-0.2c0.1,0,0.2-0.1,0.2-0.1s0.1-0.1,0.1-0.2c0-0.1,0-0.1-0.1-0.1c0,0-0.1-0.1-0.1-0.1 c-0.1,0-0.2,0.1-0.5,0.2c-0.3,0.1-0.5,0.2-0.7,0.2c-0.3,0-0.5-0.1-0.7-0.2c-0.2-0.2-0.3-0.4-0.3-0.7H-143.9z"></path> <path class="st22" d="M-141.7,11.4c0.1,0.1,0.2,0.1,0.4,0.1c0.2,0,0.3,0,0.4-0.1c0.1-0.1,0.2-0.2,0.2-0.4s-0.1-0.3-0.2-0.4 c-0.1-0.1-0.2-0.1-0.4-0.1c-0.2,0-0.3,0-0.4,0.1c-0.1,0.1-0.2,0.2-0.2,0.4C-141.9,11.2-141.8,11.3-141.7,11.4z"></path> <path class="st22" d="M-138.2,10.8c-0.2-0.2-0.3-0.4-0.3-0.7c0-0.3,0.1-0.5,0.3-0.7c0.2-0.2,0.4-0.3,0.7-0.3c0.3,0,0.5,0.1,0.7,0.3 c0.2,0.2,0.3,0.4,0.3,0.7c0,0.3-0.1,0.5-0.3,0.7c-0.2,0.2-0.4,0.3-0.7,0.3C-137.8,11.1-138,11-138.2,10.8z M-138.4,11.1 c0.1,0.1,0.3,0.2,0.4,0.3c0.2,0.1,0.4,0.1,0.6,0.1c0.4,0,0.7-0.1,1-0.4c0.2-0.2,0.4-0.6,0.4-0.9c0-0.4-0.1-0.7-0.4-1 c-0.3-0.3-0.6-0.4-1-0.4c-0.2,0-0.4,0-0.5,0.1c-0.2,0.1-0.3,0.2-0.4,0.3V8.9c0,0,0-0.1,0-0.1c0,0-0.1,0-0.1,0h-0.4 c-0.1,0-0.1,0-0.2,0.1c0,0-0.1,0.1-0.1,0.2c0,0.1,0,0.1,0.1,0.2s0.1,0,0.3,0h0.1v3h-0.1c-0.1,0-0.2,0-0.3,0c-0.1,0-0.1,0.1-0.1,0.2 c0,0.1,0,0.1,0.1,0.2c0,0,0.1,0.1,0.2,0.1h1.3c0.1,0,0.2,0,0.2,0c0,0,0.1-0.1,0.1-0.2c0-0.1,0-0.1-0.1-0.2s-0.1-0.1-0.2-0.1h-0.7 V11.1z"></path> <path class="st22" d="M-134.9,9.5c0.2-0.2,0.4-0.3,0.7-0.3c0.3,0,0.5,0.1,0.7,0.3c0.2,0.2,0.3,0.4,0.3,0.7c0,0.3-0.1,0.5-0.3,0.7 c-0.2,0.2-0.4,0.3-0.7,0.3c-0.3,0-0.5-0.1-0.7-0.3c-0.2-0.2-0.3-0.4-0.3-0.7C-135.1,9.9-135,9.7-134.9,9.5z M-132.6,11.5 c0.1,0,0.1,0,0.1-0.1c0,0,0.1-0.1,0.1-0.2c0-0.1,0-0.1-0.1-0.2c0,0-0.1,0-0.2,0h-0.1V7.8c0,0,0-0.1,0-0.1c0,0-0.1,0-0.1,0h-0.6 c-0.1,0-0.1,0-0.2,0.1c0,0-0.1,0.1-0.1,0.2c0,0.1,0,0.1,0.1,0.2c0,0,0.2,0,0.3,0h0.2v1.1c-0.1-0.1-0.3-0.2-0.4-0.3 c-0.2-0.1-0.3-0.1-0.5-0.1c-0.4,0-0.7,0.1-1,0.4c-0.3,0.3-0.4,0.6-0.4,1c0,0.4,0.1,0.7,0.4,1c0.2,0.3,0.6,0.4,0.9,0.4 c0.2,0,0.4,0,0.6-0.1c0.2-0.1,0.3-0.2,0.4-0.3v0.2c0,0.1,0,0.1,0,0.1c0,0,0,0,0.1,0H-132.6z"></path> <path class="st22" d="M-130.5,11.1V9.3h1c0.1,0,0.1,0,0.2-0.1s0.1-0.1,0.1-0.2c0-0.1,0-0.1-0.1-0.2c0,0-0.1-0.1-0.2-0.1h-1V8.7 c0-0.2,0-0.4,0.1-0.5c0.1-0.1,0.3-0.1,0.5-0.1c0.1,0,0.2,0,0.3,0c0.1,0,0.2,0,0.3,0c0.1,0,0.1,0,0.2-0.1s0.1-0.1,0.1-0.1 c0-0.1-0.1-0.2-0.2-0.2c-0.1,0-0.3-0.1-0.5-0.1c-0.4,0-0.8,0.1-1,0.2c-0.2,0.2-0.3,0.4-0.3,0.8v0.2h-0.5c-0.1,0-0.1,0-0.2,0.1 s-0.1,0.1-0.1,0.2c0,0.1,0,0.1,0.1,0.2c0,0,0.1,0.1,0.2,0.1h0.5v1.8h-0.5c-0.1,0-0.1,0-0.2,0.1c0,0-0.1,0.1-0.1,0.2 c0,0.1,0,0.1,0.1,0.2c0,0,0.1,0.1,0.2,0.1h1.9c0.1,0,0.1,0,0.2-0.1c0,0,0.1-0.1,0.1-0.2c0-0.1,0-0.1-0.1-0.2c0,0-0.1-0.1-0.2-0.1 H-130.5z"></path> <path class="st22" d="M-116.2,8.2v2.9h-0.5c-0.2,0-0.3,0-0.3,0c0,0-0.1,0.1-0.1,0.2c0,0.1,0,0.1,0.1,0.2s0.1,0.1,0.2,0.1h1.8 c0.1,0,0.1,0,0.2-0.1s0.1-0.1,0.1-0.2c0-0.1,0-0.1-0.1-0.2c0,0-0.2,0-0.3,0h-0.5V7.9c0-0.1,0-0.1,0-0.1c0,0-0.1-0.1-0.1-0.1 c0,0,0,0-0.1,0c0,0,0,0-0.1,0l-0.9,0.2c-0.1,0-0.1,0-0.1,0.1c0,0,0,0.1,0,0.1c0,0.1,0,0.1,0.1,0.1c0,0,0.1,0.1,0.1,0.1c0,0,0,0,0,0 c0,0,0,0,0.1,0L-116.2,8.2z"></path> <path class="st22" d="M-101.8,8.2v2.9h-0.5c-0.2,0-0.3,0-0.3,0c0,0-0.1,0.1-0.1,0.2c0,0.1,0,0.1,0.1,0.2s0.1,0.1,0.2,0.1h1.8 c0.1,0,0.1,0,0.2-0.1s0.1-0.1,0.1-0.2c0-0.1,0-0.1-0.1-0.2c0,0-0.2,0-0.3,0h-0.5V7.9c0-0.1,0-0.1,0-0.1c0,0-0.1-0.1-0.1-0.1 c0,0,0,0-0.1,0c0,0,0,0-0.1,0l-0.9,0.2c-0.1,0-0.1,0-0.1,0.1c0,0,0,0.1,0,0.1c0,0.1,0,0.1,0.1,0.1c0,0,0.1,0.1,0.1,0.1c0,0,0,0,0,0 c0,0,0,0,0.1,0L-101.8,8.2z"></path> <path class="st22" d="M-96.9,7.6C-96.9,7.6-96.9,7.6-96.9,7.6c0-0.1,0-0.1,0-0.1c0-0.1,0-0.1-0.1-0.1s-0.1-0.1-0.1-0.1 c-0.1,0-0.1,0-0.1,0.1c0,0-0.1,0.1-0.1,0.2l-1.8,3.9c0,0,0,0,0,0.1c0,0,0,0,0,0.1c0,0.1,0,0.1,0.1,0.1c0,0,0.1,0.1,0.1,0.1 c0.1,0,0.1,0,0.1-0.1c0,0,0.1-0.1,0.1-0.2L-96.9,7.6z"></path> <path class="st22" d="M-93.6,9.2c0.1-0.1,0.1-0.3,0.1-0.5c0-0.3-0.1-0.5-0.3-0.7s-0.5-0.3-0.8-0.3c-0.3,0-0.5,0.1-0.7,0.2 c-0.2,0.1-0.3,0.2-0.3,0.4c0,0.1,0,0.1,0.1,0.1s0.1,0.1,0.1,0.1c0,0,0.2-0.1,0.3-0.2c0.2-0.1,0.3-0.2,0.5-0.2 c0.2,0,0.3,0.1,0.4,0.2s0.2,0.3,0.2,0.5c0,0.1,0,0.3-0.1,0.4c-0.1,0.1-0.2,0.2-0.4,0.2c0,0-0.1,0-0.2,0c-0.2,0-0.2,0.1-0.2,0.2 c0,0.1,0.1,0.2,0.2,0.2c0.1,0,0.2,0,0.2,0c0.2,0,0.3,0.1,0.4,0.2s0.2,0.3,0.2,0.4c0,0.2-0.1,0.4-0.2,0.5c-0.1,0.1-0.3,0.2-0.6,0.2 c-0.2,0-0.4,0-0.6-0.1c-0.2-0.1-0.3-0.1-0.4-0.1c-0.1,0-0.1,0-0.2,0.1c0,0-0.1,0.1-0.1,0.1c0,0.1,0.1,0.3,0.3,0.4 c0.2,0.1,0.5,0.2,0.8,0.2c0.4,0,0.7-0.1,0.9-0.3c0.2-0.2,0.4-0.5,0.4-0.8c0-0.2-0.1-0.4-0.2-0.6c-0.1-0.2-0.3-0.3-0.5-0.3 C-93.8,9.4-93.7,9.3-93.6,9.2z"></path> <path class="st22" d="M-91,8.2v2.9h-0.5c-0.2,0-0.3,0-0.3,0c0,0-0.1,0.1-0.1,0.2c0,0.1,0,0.1,0.1,0.2s0.1,0.1,0.2,0.1h1.8 c0.1,0,0.1,0,0.2-0.1s0.1-0.1,0.1-0.2c0-0.1,0-0.1-0.1-0.2c0,0-0.2,0-0.3,0h-0.5V7.9c0-0.1,0-0.1,0-0.1c0,0-0.1-0.1-0.1-0.1 c0,0,0,0-0.1,0c0,0,0,0-0.1,0L-91.7,8c-0.1,0-0.1,0-0.1,0.1c0,0,0,0.1,0,0.1c0,0.1,0,0.1,0.1,0.1c0,0,0.1,0.1,0.1,0.1c0,0,0,0,0,0 c0,0,0,0,0.1,0L-91,8.2z"></path> <path class="st22" d="M-86.1,7.6C-86.1,7.6-86.1,7.6-86.1,7.6c0-0.1,0-0.1,0-0.1c0-0.1,0-0.1-0.1-0.1s-0.1-0.1-0.1-0.1 c-0.1,0-0.1,0-0.1,0.1c0,0-0.1,0.1-0.1,0.2l-1.8,3.9c0,0,0,0,0,0.1c0,0,0,0,0,0.1c0,0.1,0,0.1,0.1,0.1c0,0,0.1,0.1,0.1,0.1 c0.1,0,0.1,0,0.1-0.1c0,0,0.1-0.1,0.1-0.2L-86.1,7.6z"></path> <path class="st22" d="M-82.8,11.5c0,0,0.1,0,0.1-0.1c0,0,0-0.1,0.1-0.1l0-0.2c0,0,0,0,0,0c0,0,0,0,0,0c0-0.1,0-0.1-0.1-0.2 s-0.1-0.1-0.2-0.1c-0.1,0-0.1,0-0.2,0.1c0,0-0.1,0.1-0.1,0.2h-1.3l0.4-0.3c0.1-0.1,0.2-0.2,0.4-0.4c0.7-0.6,1-1.1,1-1.5 c0-0.3-0.1-0.6-0.3-0.8c-0.2-0.2-0.5-0.3-0.8-0.3c-0.2,0-0.4,0-0.6,0.1c-0.2,0.1-0.3,0.2-0.5,0.3c0,0-0.1,0.1-0.1,0.1 c0,0,0,0.1,0,0.2c0,0.1,0,0.2,0,0.2c0,0,0.1,0.1,0.2,0.1c0.1,0,0.2-0.1,0.2-0.2c0,0,0-0.1,0.1-0.1c0.1-0.1,0.2-0.2,0.3-0.2 c0.1,0,0.2-0.1,0.4-0.1c0.2,0,0.3,0.1,0.5,0.2c0.1,0.1,0.2,0.3,0.2,0.5c0,0.3-0.3,0.8-1,1.4c-0.1,0.1-0.2,0.2-0.2,0.2l-0.1,0.1 c-0.4,0.4-0.6,0.6-0.6,0.7c0,0.1,0,0.2,0.1,0.2c0,0,0.1,0.1,0.2,0.1H-82.8z"></path> <path class="st22" d="M-79.2,11.5c0,0,0.1,0,0.1-0.1c0,0,0-0.1,0.1-0.1l0-0.2c0,0,0,0,0,0c0,0,0,0,0,0c0-0.1,0-0.1-0.1-0.2 s-0.1-0.1-0.2-0.1c-0.1,0-0.1,0-0.2,0.1c0,0-0.1,0.1-0.1,0.2h-1.3l0.4-0.3c0.1-0.1,0.2-0.2,0.4-0.4c0.7-0.6,1-1.1,1-1.5 c0-0.3-0.1-0.6-0.3-0.8c-0.2-0.2-0.5-0.3-0.8-0.3c-0.2,0-0.4,0-0.6,0.1C-80.9,7.9-81,8-81.2,8.1c0,0-0.1,0.1-0.1,0.1 c0,0,0,0.1,0,0.2c0,0.1,0,0.2,0,0.2c0,0,0.1,0.1,0.2,0.1c0.1,0,0.2-0.1,0.2-0.2c0,0,0-0.1,0.1-0.1c0.1-0.1,0.2-0.2,0.3-0.2 c0.1,0,0.2-0.1,0.4-0.1c0.2,0,0.3,0.1,0.5,0.2c0.1,0.1,0.2,0.3,0.2,0.5c0,0.3-0.3,0.8-1,1.4c-0.1,0.1-0.2,0.2-0.2,0.2l-0.1,0.1 c-0.4,0.4-0.6,0.6-0.6,0.7c0,0.1,0,0.2,0.1,0.2c0,0,0.1,0.1,0.2,0.1H-79.2z"></path> <path class="st22" d="M-65.8,8.2v2.9h-0.5c-0.2,0-0.3,0-0.3,0c0,0-0.1,0.1-0.1,0.2c0,0.1,0,0.1,0.1,0.2s0.1,0.1,0.2,0.1h1.8 c0.1,0,0.1,0,0.2-0.1s0.1-0.1,0.1-0.2c0-0.1,0-0.1-0.1-0.2c0,0-0.2,0-0.3,0h-0.5V7.9c0-0.1,0-0.1,0-0.1c0,0-0.1-0.1-0.1-0.1 c0,0,0,0-0.1,0c0,0,0,0-0.1,0L-66.5,8c-0.1,0-0.1,0-0.1,0.1c0,0,0,0.1,0,0.1c0,0.1,0,0.1,0.1,0.1c0,0,0.1,0.1,0.1,0.1c0,0,0,0,0,0 c0,0,0,0,0.1,0L-65.8,8.2z"></path> <path class="st22" d="M-62.2,8.2v2.9h-0.5c-0.2,0-0.3,0-0.3,0c0,0-0.1,0.1-0.1,0.2c0,0.1,0,0.1,0.1,0.2s0.1,0.1,0.2,0.1h1.8 c0.1,0,0.1,0,0.2-0.1s0.1-0.1,0.1-0.2c0-0.1,0-0.1-0.1-0.2c0,0-0.2,0-0.3,0h-0.5V7.9c0-0.1,0-0.1,0-0.1c0,0-0.1-0.1-0.1-0.1 c0,0,0,0-0.1,0c0,0,0,0-0.1,0L-62.9,8C-62.9,8-63,8-63,8.1c0,0,0,0.1,0,0.1c0,0.1,0,0.1,0.1,0.1c0,0,0.1,0.1,0.1,0.1c0,0,0,0,0,0 c0,0,0,0,0.1,0L-62.2,8.2z"></path> <path class="st22" d="M-58.9,11.4c0.1,0.1,0.2,0.1,0.4,0.1c0.2,0,0.3,0,0.4-0.1c0.1-0.1,0.2-0.2,0.2-0.4c0-0.2-0.1-0.3-0.2-0.4 c-0.1-0.1-0.2-0.1-0.4-0.1c-0.2,0-0.3,0-0.4,0.1C-59,10.7-59,10.9-59,11C-59,11.2-59,11.3-58.9,11.4z M-58.9,9.8 c0.1,0.1,0.2,0.1,0.4,0.1c0.2,0,0.3,0,0.4-0.1c0.1-0.1,0.2-0.2,0.2-0.4s-0.1-0.3-0.2-0.4c-0.1-0.1-0.2-0.1-0.4-0.1 c-0.2,0-0.3,0-0.4,0.1C-59,9.1-59,9.2-59,9.4C-59,9.6-59,9.7-58.9,9.8z"></path> <path class="st22" d="M-54,11.5c0.1,0,0.1,0,0.2-0.1c0,0,0.1-0.1,0.1-0.2c0-0.1,0-0.1-0.1-0.2s-0.1,0-0.3,0h-0.1v-0.5h0.2 c0.1,0,0.1,0,0.1,0c0,0,0-0.1,0.1-0.1l0-0.1c0,0,0,0,0,0c0,0,0,0,0,0c0,0,0-0.1,0-0.1c0,0-0.1,0-0.1,0c0,0-0.1,0-0.1,0.1 c0,0-0.1,0.1-0.1,0.1h-0.1V7.9c0,0,0-0.1,0-0.1c0,0,0,0-0.1,0l-0.3,0c0,0,0,0,0,0c0,0-0.1,0-0.1,0c0,0-0.1,0-0.1,0c0,0,0,0-0.1,0.1 L-56,9.9c0,0,0,0,0,0c-0.1,0.1-0.1,0.2-0.1,0.2v0.2c0,0.1,0,0.1,0,0.1c0,0,0.1,0,0.1,0h1.4v0.5H-55c-0.1,0-0.1,0-0.2,0 c0,0-0.1,0.1-0.1,0.2c0,0.1,0,0.1,0.1,0.2c0,0,0.1,0,0.2,0H-54z M-55.7,10.1l1.1-2v2H-55.7z"></path> <path class="st22" d="M-50.4,9.2c0.1-0.1,0.1-0.3,0.1-0.5c0-0.3-0.1-0.5-0.3-0.7s-0.5-0.3-0.8-0.3c-0.3,0-0.5,0.1-0.7,0.2 c-0.2,0.1-0.3,0.2-0.3,0.4c0,0.1,0,0.1,0.1,0.1s0.1,0.1,0.1,0.1c0,0,0.2-0.1,0.3-0.2c0.2-0.1,0.3-0.2,0.5-0.2 c0.2,0,0.3,0.1,0.4,0.2s0.2,0.3,0.2,0.5c0,0.1,0,0.3-0.1,0.4c-0.1,0.1-0.2,0.2-0.4,0.2c0,0-0.1,0-0.2,0c-0.2,0-0.2,0.1-0.2,0.2 c0,0.1,0.1,0.2,0.2,0.2c0.1,0,0.2,0,0.2,0c0.2,0,0.3,0.1,0.4,0.2s0.2,0.3,0.2,0.4c0,0.2-0.1,0.4-0.2,0.5c-0.1,0.1-0.3,0.2-0.6,0.2 c-0.2,0-0.4,0-0.6-0.1c-0.2-0.1-0.3-0.1-0.4-0.1c-0.1,0-0.1,0-0.2,0.1c0,0-0.1,0.1-0.1,0.1c0,0.1,0.1,0.3,0.3,0.4 c0.2,0.1,0.5,0.2,0.8,0.2c0.4,0,0.7-0.1,0.9-0.3c0.2-0.2,0.4-0.5,0.4-0.8c0-0.2-0.1-0.4-0.2-0.6c-0.1-0.2-0.3-0.3-0.5-0.3 C-50.6,9.4-50.5,9.3-50.4,9.2z"></path> <path class="st22" d="M-45.5,11.1L-45.5,11.1c-0.2,0-0.3,0-0.3,0c0,0-0.1,0.1-0.1,0.2c0,0.1,0,0.1,0.1,0.2c0,0,0.1,0,0.2,0h0.8 c0.1,0,0.2,0,0.3,0c0,0,0.1-0.1,0.1-0.2c0-0.1,0-0.1-0.1-0.2s-0.1,0-0.3,0h-0.3l0.3-0.7h1.5l0.3,0.7h-0.3c-0.1,0-0.2,0-0.3,0 c0,0-0.1,0.1-0.1,0.2c0,0.1,0,0.1,0.1,0.2c0,0,0.1,0,0.3,0h0.8c0.1,0,0.2,0,0.2,0c0,0,0.1-0.1,0.1-0.2c0-0.1,0-0.1-0.1-0.2 c0,0-0.1,0-0.2,0h-0.1l-1.1-2.9c0-0.1-0.1-0.1-0.1-0.2c0,0-0.1,0-0.2,0h-0.8c-0.2,0-0.3,0-0.3,0c0,0-0.1,0.1-0.1,0.2 c0,0.1,0,0.1,0.1,0.2c0,0,0.1,0,0.2,0h0.4L-45.5,11.1z M-44.1,8.4l0.6,1.6h-1.2L-44.1,8.4z"></path> <path class="st22" d="M-41.1,8.2c0-0.1-0.1-0.1-0.1-0.2c0,0-0.1,0-0.2,0h-0.5C-42,8-42,8-42,8.1c0,0-0.1,0.1-0.1,0.1 c0,0.1,0,0.1,0.1,0.2c0,0,0.1,0,0.2,0h0l-0.1,2.7h-0.1c-0.1,0-0.2,0-0.3,0c0,0-0.1,0.1-0.1,0.2c0,0.1,0,0.1,0.1,0.2 s0.1,0.1,0.2,0.1h0.8c0.1,0,0.2,0,0.2,0c0,0,0.1-0.1,0.1-0.2c0-0.1,0-0.1-0.1-0.2c0,0-0.1,0-0.2,0h-0.2l0.1-2.5l0.6,1.7 c0,0.1,0.1,0.1,0.1,0.2c0,0,0.1,0,0.2,0c0.1,0,0.2,0,0.2,0c0,0,0.1-0.1,0.1-0.2l0.6-1.7l0.1,2.5h-0.1c-0.1,0-0.2,0-0.3,0 c0,0-0.1,0.1-0.1,0.2c0,0.1,0,0.1,0.1,0.2c0,0,0.1,0,0.2,0h0.8c0.1,0,0.1,0,0.2-0.1c0,0,0.1-0.1,0.1-0.2c0-0.1,0-0.1-0.1-0.2 c0,0-0.1,0-0.3,0h-0.1l-0.1-2.7h0c0.1,0,0.2,0,0.2,0c0,0,0.1-0.1,0.1-0.2c0-0.1,0-0.1,0-0.1C-38.9,8-39,8-39,8h-0.5 c-0.1,0-0.2,0-0.2,0c0,0-0.1,0.1-0.1,0.2l-0.6,1.8L-41.1,8.2z"></path> <text transform="matrix(1 0 0 1 -200.6928 11.4998)" class="st3" style="font-family:'Courier'; font-size:6px;">20 foot Template.pdf 1 1/31/22 11:43 AM</text> <path class="st23" d="M-249.2,13.5c0,5-4,9-9,9c-5,0-9-4-9-9c0-5,4-9,9-9C-253.2,4.5-249.2,8.5-249.2,13.5"></path> <circle class="st24" cx="-258.2" cy="13.5" r="9"></circle> <g class="st3"> <defs> <polygon id="SVGID_1_" points="-257.2,13.5 -240.2,12.7 -240.2,14.3 "></polygon> </defs> <clipPath id="SVGID_00000168118829423176177040000014490619293978817455_"> <use xlink:href="#SVGID_1_" style="overflow:visible;"></use> </clipPath> <path style="clip-path:url(#SVGID_00000168118829423176177040000014490619293978817455_);" d="M-249.2,13.5c0,5-4,9-9,9 c-5,0-9-4-9-9c0-5,4-9,9-9C-253.2,4.5-249.2,8.5-249.2,13.5"></path> </g> <g class="st3"> <defs> <polygon id="SVGID_00000095337982709729256140000015853140112617094817_" points="-257.2,13.7 -240.3,15.8 -240.6,17.4 "></polygon> </defs> <clipPath id="SVGID_00000134968658576025129710000015575526488351183268_"> <use xlink:href="#SVGID_00000095337982709729256140000015853140112617094817_" style="overflow:visible;"></use> </clipPath> <path style="clip-path:url(#SVGID_00000134968658576025129710000015575526488351183268_);" d="M-249.3,15.1 c-0.9,4.9-5.5,8.2-10.4,7.3c-4.9-0.9-8.2-5.5-7.3-10.4c0.9-4.9,5.5-8.2,10.4-7.3C-251.7,5.5-248.5,10.2-249.3,15.1"></path> </g> <g class="st3"> <defs> <polygon id="SVGID_00000009572820656994405490000010229664056143358383_" points="-257.3,13.8 -241,18.9 -241.6,20.4 "></polygon> </defs> <clipPath id="SVGID_00000078759217712541331060000013574652756499236742_"> <use xlink:href="#SVGID_00000009572820656994405490000010229664056143358383_" style="overflow:visible;"></use> </clipPath> <path style="clip-path:url(#SVGID_00000078759217712541331060000013574652756499236742_);" d="M-249.7,16.6 c-1.7,4.7-6.9,7.1-11.5,5.4c-4.7-1.7-7.1-6.9-5.4-11.5c1.7-4.7,6.9-7.1,11.5-5.4C-250.4,6.7-248,11.9-249.7,16.6"></path> </g> <g class="st3"> <defs> <polygon id="SVGID_00000027592945681051106220000008086230093696232587_" points="-257.3,14 -242.2,21.8 -243,23.2 "></polygon> </defs> <clipPath id="SVGID_00000080907936288178780560000006384942558375597698_"> <use xlink:href="#SVGID_00000027592945681051106220000008086230093696232587_" style="overflow:visible;"></use> </clipPath> <path style="clip-path:url(#SVGID_00000080907936288178780560000006384942558375597698_);" d="M-250.4,18c-2.5,4.3-8,5.8-12.3,3.3 c-4.3-2.5-5.8-8-3.3-12.3c2.5-4.3,8-5.8,12.3-3.3C-249.4,8.2-247.9,13.7-250.4,18"></path> </g> <g class="st3"> <defs> <polygon id="SVGID_00000081622057069818616350000013324402452001526946_" points="-257.4,14.1 -243.9,24.5 -244.9,25.7 "></polygon> </defs> <clipPath id="SVGID_00000183212467166708131860000016332515002030835866_"> <use xlink:href="#SVGID_00000081622057069818616350000013324402452001526946_" style="overflow:visible;"></use> </clipPath> <path style="clip-path:url(#SVGID_00000183212467166708131860000016332515002030835866_);" d="M-251.3,19.3 c-3.2,3.8-8.9,4.3-12.7,1.1c-3.8-3.2-4.3-8.9-1.1-12.7c3.2-3.8,8.9-4.3,12.7-1.1C-248.6,9.8-248.1,15.5-251.3,19.3"></path> </g> <g class="st3"> <defs> <polygon id="SVGID_00000002342159231661991730000002416553955413891981_" points="-257.5,14.3 -246,26.8 -247.2,27.8 "></polygon> </defs> <clipPath id="SVGID_00000008868729704540338020000003146609631083288460_"> <use xlink:href="#SVGID_00000002342159231661991730000002416553955413891981_" style="overflow:visible;"></use> </clipPath> <path style="clip-path:url(#SVGID_00000008868729704540338020000003146609631083288460_);" d="M-252.4,20.4 c-3.8,3.2-9.5,2.7-12.7-1.1c-3.2-3.8-2.7-9.5,1.1-12.7c3.8-3.2,9.5-2.7,12.7,1.1C-248.1,11.5-248.6,17.2-252.4,20.4"></path> </g> <g class="st3"> <defs> <polygon id="SVGID_00000168113187246177721340000016723034290533886853_" points="-257.7,14.4 -248.5,28.7 -249.9,29.5 "></polygon> </defs> <clipPath id="SVGID_00000164504243505206125500000007067993124856717208_"> <use xlink:href="#SVGID_00000168113187246177721340000016723034290533886853_" style="overflow:visible;"></use> </clipPath> <path style="clip-path:url(#SVGID_00000164504243505206125500000007067993124856717208_);" d="M-253.7,21.3 c-4.3,2.5-9.8,1-12.3-3.3c-2.5-4.3-1-9.8,3.3-12.3c4.3-2.5,9.8-1,12.3,3.3C-247.9,13.3-249.4,18.8-253.7,21.3"></path> </g> <g class="st3"> <defs> <polygon id="SVGID_00000039825015629243033420000011478686784558043032_" points="-257.9,14.4 -251.3,30.1 -252.8,30.7 "></polygon> </defs> <clipPath id="SVGID_00000031912240244944636220000010574821025394728606_"> <use xlink:href="#SVGID_00000039825015629243033420000011478686784558043032_" style="overflow:visible;"></use> </clipPath> <path style="clip-path:url(#SVGID_00000031912240244944636220000010574821025394728606_);" d="M-255.1,22 c-4.7,1.7-9.8-0.7-11.5-5.4c-1.7-4.7,0.7-9.8,5.4-11.5c4.7-1.7,9.8,0.7,11.5,5.4C-248,15.1-250.4,20.3-255.1,22"></path> </g> <g class="st3"> <defs> <polygon id="SVGID_00000012446455248400957170000017235618760331713946_" points="-258,14.5 -254.3,31.1 -255.8,31.3 "></polygon> </defs> <clipPath id="SVGID_00000127033126942835173830000007549181557325357721_"> <use xlink:href="#SVGID_00000012446455248400957170000017235618760331713946_" style="overflow:visible;"></use> </clipPath> <path style="clip-path:url(#SVGID_00000127033126942835173830000007549181557325357721_);" d="M-256.6,22.4 c-4.9,0.9-9.6-2.4-10.4-7.3c-0.9-4.9,2.4-9.6,7.3-10.4c4.9-0.9,9.6,2.4,10.4,7.3C-248.5,16.8-251.7,21.5-256.6,22.4"></path> </g> <g class="st3"> <defs> <polygon id="SVGID_00000096021494175224793310000017692669193552088736_" points="-258.2,14.5 -257.4,31.5 -259,31.5 "></polygon> </defs> <clipPath id="SVGID_00000049200845160407067380000000791992806745772715_"> <use xlink:href="#SVGID_00000096021494175224793310000017692669193552088736_" style="overflow:visible;"></use> </clipPath> <path style="clip-path:url(#SVGID_00000049200845160407067380000000791992806745772715_);" d="M-258.2,22.5c-5,0-9-4-9-9 c0-5,4-9,9-9c5,0,9,4,9,9C-249.2,18.5-253.2,22.5-258.2,22.5"></path> </g> <g class="st3"> <defs> <polygon id="SVGID_00000121262752505920079430000013794315976186873522_" points="-258.4,14.5 -260.5,31.3 -262.1,31.1 "></polygon> </defs> <clipPath id="SVGID_00000114037703641057260470000017005578312271975810_"> <use xlink:href="#SVGID_00000121262752505920079430000013794315976186873522_" style="overflow:visible;"></use> </clipPath> <path style="clip-path:url(#SVGID_00000114037703641057260470000017005578312271975810_);" d="M-259.8,22.4 c-4.9-0.9-8.2-5.5-7.3-10.4c0.9-4.9,5.5-8.2,10.4-7.3c4.9,0.9,8.2,5.5,7.3,10.4C-250.2,20-254.9,23.2-259.8,22.4"></path> </g> <g class="st3"> <defs> <polygon id="SVGID_00000153682357610810499050000007834272262782430111_" points="-258.5,14.4 -263.6,30.7 -265.1,30.1 "></polygon> </defs> <clipPath id="SVGID_00000104699006978114751490000015181118399557030315_"> <use xlink:href="#SVGID_00000153682357610810499050000007834272262782430111_" style="overflow:visible;"></use> </clipPath> <path style="clip-path:url(#SVGID_00000104699006978114751490000015181118399557030315_);" d="M-261.3,22 c-4.7-1.7-7.1-6.9-5.4-11.5c1.7-4.7,6.9-7.1,11.5-5.4c4.7,1.7,7.1,6.9,5.4,11.5C-251.4,21.2-256.6,23.7-261.3,22"></path> </g> <g class="st3"> <defs> <polygon id="SVGID_00000162311501639206573860000004076380764373080714_" points="-258.7,14.4 -266.5,29.5 -267.9,28.7 "></polygon> </defs> <clipPath id="SVGID_00000162349108836867224520000010017547069162137528_"> <use xlink:href="#SVGID_00000162311501639206573860000004076380764373080714_" style="overflow:visible;"></use> </clipPath> <path style="clip-path:url(#SVGID_00000162349108836867224520000010017547069162137528_);" d="M-262.7,21.3 c-4.3-2.5-5.8-8-3.3-12.3c2.5-4.3,8-5.8,12.3-3.3c4.3,2.5,5.8,8,3.3,12.3C-252.9,22.3-258.4,23.8-262.7,21.3"></path> </g> <g class="st3"> <defs> <polygon id="SVGID_00000138574276418068817420000012199823319477194378_" points="-258.8,14.3 -269.2,27.8 -270.4,26.8 "></polygon> </defs> <clipPath id="SVGID_00000088842003638457714180000009557377683062607240_"> <use xlink:href="#SVGID_00000138574276418068817420000012199823319477194378_" style="overflow:visible;"></use> </clipPath> <path style="clip-path:url(#SVGID_00000088842003638457714180000009557377683062607240_);" d="M-264,20.4 c-3.8-3.2-4.3-8.9-1.1-12.7c3.2-3.8,8.9-4.3,12.7-1.1c3.8,3.2,4.3,8.9,1.1,12.7C-254.5,23.1-260.2,23.6-264,20.4"></path> </g> <g class="st3"> <defs> <polygon id="SVGID_00000041286512478465687760000008474519515586553225_" points="-259,14.1 -271.5,25.7 -272.5,24.5 "></polygon> </defs> <clipPath id="SVGID_00000047055776200007107150000016639151722996835263_"> <use xlink:href="#SVGID_00000041286512478465687760000008474519515586553225_" style="overflow:visible;"></use> </clipPath> <path style="clip-path:url(#SVGID_00000047055776200007107150000016639151722996835263_);" d="M-265.1,19.3 c-3.2-3.8-2.7-9.5,1.1-12.7c3.8-3.2,9.5-2.7,12.7,1.1c3.2,3.8,2.7,9.5-1.1,12.7C-256.2,23.6-261.9,23.1-265.1,19.3"></path> </g> <g class="st3"> <defs> <polygon id="SVGID_00000133487763465045404780000010766923639329778617_" points="-259.1,14 -273.4,23.2 -274.2,21.8 "></polygon> </defs> <clipPath id="SVGID_00000019657691193731258070000008440490616864365978_"> <use xlink:href="#SVGID_00000133487763465045404780000010766923639329778617_" style="overflow:visible;"></use> </clipPath> <path style="clip-path:url(#SVGID_00000019657691193731258070000008440490616864365978_);" d="M-266,18c-2.5-4.3-1-9.8,3.3-12.3 c4.3-2.5,9.8-1,12.3,3.3c2.5,4.3,1,9.8-3.3,12.3C-258,23.8-263.5,22.3-266,18"></path> </g> <g class="st3"> <defs> <polygon id="SVGID_00000160875191709840752710000010465237264076109748_" points="-259.1,13.8 -274.8,20.4 -275.4,18.9 "></polygon> </defs> <clipPath id="SVGID_00000150067192409057364970000011946368035954799502_"> <use xlink:href="#SVGID_00000160875191709840752710000010465237264076109748_" style="overflow:visible;"></use> </clipPath> <path style="clip-path:url(#SVGID_00000150067192409057364970000011946368035954799502_);" d="M-266.7,16.6 c-1.7-4.7,0.7-9.8,5.4-11.5c4.7-1.7,9.8,0.7,11.5,5.4c1.7,4.7-0.7,9.8-5.4,11.5C-259.8,23.7-265,21.2-266.7,16.6"></path> </g> <g class="st3"> <defs> <polygon id="SVGID_00000127724024999034842780000011594349061635473852_" points="-259.2,13.7 -275.8,17.4 -276,15.8 "></polygon> </defs> <clipPath id="SVGID_00000124129720658840629140000008235746749558679943_"> <use xlink:href="#SVGID_00000127724024999034842780000011594349061635473852_" style="overflow:visible;"></use> </clipPath> <path style="clip-path:url(#SVGID_00000124129720658840629140000008235746749558679943_);" d="M-267.1,15.1 c-0.9-4.9,2.4-9.6,7.3-10.4c4.9-0.9,9.6,2.4,10.4,7.3c0.9,4.9-2.4,9.6-7.3,10.4C-261.5,23.2-266.2,20-267.1,15.1"></path> </g> <g class="st3"> <defs> <polygon id="SVGID_00000181795016067489232500000014639678737292047285_" points="-259.2,13.5 -276.2,14.3 -276.2,12.7 "></polygon> </defs> <clipPath id="SVGID_00000062908061384188949530000010823593867563934118_"> <use xlink:href="#SVGID_00000181795016067489232500000014639678737292047285_" style="overflow:visible;"></use> </clipPath> <path style="clip-path:url(#SVGID_00000062908061384188949530000010823593867563934118_);" d="M-267.2,13.5c0-5,4-9,9-9 c5,0,9,4,9,9c0,5-4,9-9,9C-263.2,22.5-267.2,18.5-267.2,13.5"></path> </g> <g class="st3"> <defs> <polygon id="SVGID_00000147917023180292109630000001508006336080278692_" points="-259.2,13.3 -276,11.2 -275.8,9.6 "></polygon> </defs> <clipPath id="SVGID_00000054267038512816180370000004600549132331272841_"> <use xlink:href="#SVGID_00000147917023180292109630000001508006336080278692_" style="overflow:visible;"></use> </clipPath> <path style="clip-path:url(#SVGID_00000054267038512816180370000004600549132331272841_);" d="M-267.1,11.9 c0.9-4.9,5.5-8.2,10.4-7.3c4.9,0.9,8.2,5.5,7.3,10.4c-0.9,4.9-5.5,8.2-10.4,7.3C-264.7,21.5-267.9,16.8-267.1,11.9"></path> </g> <g class="st3"> <defs> <polygon id="SVGID_00000097486961846012872360000005996474191580205716_" points="-259.1,13.2 -275.4,8.1 -274.8,6.6 "></polygon> </defs> <clipPath id="SVGID_00000142875737026998567210000011194220029145340815_"> <use xlink:href="#SVGID_00000097486961846012872360000005996474191580205716_" style="overflow:visible;"></use> </clipPath> <path style="clip-path:url(#SVGID_00000142875737026998567210000011194220029145340815_);" d="M-266.7,10.4 c1.7-4.7,6.9-7.1,11.5-5.4c4.7,1.7,7.1,6.9,5.4,11.5c-1.7,4.7-6.9,7.1-11.5,5.4C-265.9,20.3-268.4,15.1-266.7,10.4"></path> </g> <g class="st3"> <defs> <polygon id="SVGID_00000023239407450973923140000018433580545088325541_" points="-259.1,13 -274.2,5.2 -273.4,3.8 "></polygon> </defs> <clipPath id="SVGID_00000183245121962521431140000013767946829743097755_"> <use xlink:href="#SVGID_00000023239407450973923140000018433580545088325541_" style="overflow:visible;"></use> </clipPath> <path style="clip-path:url(#SVGID_00000183245121962521431140000013767946829743097755_);" d="M-266,9c2.5-4.3,8-5.8,12.3-3.3 c4.3,2.5,5.8,8,3.3,12.3c-2.5,4.3-8,5.8-12.3,3.3C-267,18.8-268.5,13.3-266,9"></path> </g> <g class="st3"> <defs> <polygon id="SVGID_00000175297857118826330480000016114042137089554561_" points="-259,12.9 -272.5,2.5 -271.5,1.3 "></polygon> </defs> <clipPath id="SVGID_00000088836522166763312200000004575026268866569344_"> <use xlink:href="#SVGID_00000175297857118826330480000016114042137089554561_" style="overflow:visible;"></use> </clipPath> <path style="clip-path:url(#SVGID_00000088836522166763312200000004575026268866569344_);" d="M-265.1,7.7 c3.2-3.8,8.9-4.3,12.7-1.1c3.8,3.2,4.3,8.9,1.1,12.7c-3.2,3.8-8.9,4.3-12.7,1.1C-267.8,17.2-268.3,11.5-265.1,7.7"></path> </g> <g class="st3"> <defs> <polygon id="SVGID_00000072254007392342786590000000331304007221793676_" points="-258.8,12.7 -270.4,0.2 -269.2,-0.8 "></polygon> </defs> <clipPath id="SVGID_00000107546685360420312980000006410653409605247653_"> <use xlink:href="#SVGID_00000072254007392342786590000000331304007221793676_" style="overflow:visible;"></use> </clipPath> <path style="clip-path:url(#SVGID_00000107546685360420312980000006410653409605247653_);" d="M-264,6.6c3.8-3.2,9.5-2.7,12.7,1.1 c3.2,3.8,2.7,9.5-1.1,12.7c-3.8,3.2-9.5,2.7-12.7-1.1C-268.3,15.5-267.8,9.8-264,6.6"></path> </g> <g class="st3"> <defs> <polygon id="SVGID_00000111889040043522674570000001565819267044667572_" points="-258.7,12.6 -267.9,-1.7 -266.5,-2.5 "></polygon> </defs> <clipPath id="SVGID_00000134935327272057295950000003988618176937752241_"> <use xlink:href="#SVGID_00000111889040043522674570000001565819267044667572_" style="overflow:visible;"></use> </clipPath> <path style="clip-path:url(#SVGID_00000134935327272057295950000003988618176937752241_);" d="M-262.7,5.7c4.3-2.5,9.8-1,12.3,3.3 c2.5,4.3,1,9.8-3.3,12.3c-4.3,2.5-9.8,1-12.3-3.3C-268.5,13.7-267,8.2-262.7,5.7"></path> </g> <g class="st3"> <defs> <polygon id="SVGID_00000003072977118573301000000008809542622120615317_" points="-258.5,12.6 -265.1,-3.1 -263.6,-3.7 "></polygon> </defs> <clipPath id="SVGID_00000053504268748671678560000018244445256376667315_"> <use xlink:href="#SVGID_00000003072977118573301000000008809542622120615317_" style="overflow:visible;"></use> </clipPath> <path style="clip-path:url(#SVGID_00000053504268748671678560000018244445256376667315_);" d="M-261.3,5c4.7-1.7,9.8,0.7,11.5,5.4 c1.7,4.7-0.7,9.8-5.4,11.5c-4.7,1.7-9.8-0.7-11.5-5.4C-268.4,11.9-265.9,6.7-261.3,5"></path> </g> <g class="st3"> <defs> <polygon id="SVGID_00000083771760191621159190000009246097164845582215_" points="-258.4,12.5 -262.1,-4.1 -260.5,-4.3 "></polygon> </defs> <clipPath id="SVGID_00000115507551031936561500000010188153124168531124_"> <use xlink:href="#SVGID_00000083771760191621159190000009246097164845582215_" style="overflow:visible;"></use> </clipPath> <path style="clip-path:url(#SVGID_00000115507551031936561500000010188153124168531124_);" d="M-259.8,4.6 c4.9-0.9,9.6,2.4,10.4,7.3c0.9,4.9-2.4,9.6-7.3,10.4c-4.9,0.9-9.6-2.4-10.4-7.3C-267.9,10.2-264.7,5.5-259.8,4.6"></path> </g> <g class="st3"> <defs> <polygon id="SVGID_00000090261212903062078100000004905585779738042533_" points="-258.2,12.5 -259,-4.5 -257.4,-4.5 "></polygon> </defs> <clipPath id="SVGID_00000025440993481022377900000008157057237711557556_"> <use xlink:href="#SVGID_00000090261212903062078100000004905585779738042533_" style="overflow:visible;"></use> </clipPath> <path style="clip-path:url(#SVGID_00000025440993481022377900000008157057237711557556_);" d="M-258.2,4.5c5,0,9,4,9,9 c0,5-4,9-9,9c-5,0-9-4-9-9C-267.2,8.5-263.2,4.5-258.2,4.5"></path> </g> <g class="st3"> <defs> <polygon id="SVGID_00000011021283416428778960000003822069881073656743_" points="-258,12.5 -255.8,-4.3 -254.3,-4.1 "></polygon> </defs> <clipPath id="SVGID_00000099627320982036186450000004801826433914406563_"> <use xlink:href="#SVGID_00000011021283416428778960000003822069881073656743_" style="overflow:visible;"></use> </clipPath> <path style="clip-path:url(#SVGID_00000099627320982036186450000004801826433914406563_);" d="M-256.6,4.6 c4.9,0.9,8.2,5.5,7.3,10.4c-0.9,4.9-5.5,8.2-10.4,7.3c-4.9-0.9-8.2-5.5-7.3-10.4C-266.2,7-261.5,3.8-256.6,4.6"></path> </g> <g class="st3"> <defs> <polygon id="SVGID_00000093159854487495230990000017308569190604921221_" points="-257.9,12.6 -252.8,-3.7 -251.3,-3.1 "></polygon> </defs> <clipPath id="SVGID_00000074415802294349844490000005292754982788324768_"> <use xlink:href="#SVGID_00000093159854487495230990000017308569190604921221_" style="overflow:visible;"></use> </clipPath> <path style="clip-path:url(#SVGID_00000074415802294349844490000005292754982788324768_);" d="M-255.1,5c4.7,1.7,7.1,6.9,5.4,11.5 c-1.7,4.7-6.9,7.1-11.5,5.4c-4.7-1.7-7.1-6.9-5.4-11.5C-264.9,5.8-259.8,3.3-255.1,5"></path> </g> <g class="st3"> <defs> <polygon id="SVGID_00000172425271293250345170000000211284180421147297_" points="-257.7,12.6 -249.9,-2.5 -248.5,-1.7 "></polygon> </defs> <clipPath id="SVGID_00000094591367263260814810000006232823136089021591_"> <use xlink:href="#SVGID_00000172425271293250345170000000211284180421147297_" style="overflow:visible;"></use> </clipPath> <path style="clip-path:url(#SVGID_00000094591367263260814810000006232823136089021591_);" d="M-253.7,5.7c4.3,2.5,5.8,8,3.3,12.3 c-2.5,4.3-8,5.8-12.3,3.3c-4.3-2.5-5.8-8-3.3-12.3C-263.5,4.7-258,3.2-253.7,5.7"></path> </g> <g class="st3"> <defs> <polygon id="SVGID_00000173155134215510024450000000914918635062460349_" points="-257.5,12.7 -247.2,-0.8 -246,0.2 "></polygon> </defs> <clipPath id="SVGID_00000076587394821714215360000009321141126245568180_"> <use xlink:href="#SVGID_00000173155134215510024450000000914918635062460349_" style="overflow:visible;"></use> </clipPath> <path style="clip-path:url(#SVGID_00000076587394821714215360000009321141126245568180_);" d="M-252.4,6.6 c3.8,3.2,4.3,8.9,1.1,12.7c-3.2,3.8-8.9,4.3-12.7,1.1c-3.8-3.2-4.3-8.9-1.1-12.7C-261.9,3.9-256.2,3.4-252.4,6.6"></path> </g> <g class="st3"> <defs> <polygon id="SVGID_00000096056615955545226680000014355636454427289732_" points="-257.4,12.9 -244.9,1.3 -243.9,2.5 "></polygon> </defs> <clipPath id="SVGID_00000061444659265104082350000014286033915418638498_"> <use xlink:href="#SVGID_00000096056615955545226680000014355636454427289732_" style="overflow:visible;"></use> </clipPath> <path style="clip-path:url(#SVGID_00000061444659265104082350000014286033915418638498_);" d="M-251.3,7.7 c3.2,3.8,2.7,9.5-1.1,12.7c-3.8,3.2-9.5,2.7-12.7-1.1c-3.2-3.8-2.7-9.5,1.1-12.7C-260.2,3.4-254.5,3.9-251.3,7.7"></path> </g> <g class="st3"> <defs> <polygon id="SVGID_00000083793066637646614260000001138101621310825865_" points="-257.3,13 -243,3.8 -242.2,5.2 "></polygon> </defs> <clipPath id="SVGID_00000040550906892978213960000006226462715677783714_"> <use xlink:href="#SVGID_00000083793066637646614260000001138101621310825865_" style="overflow:visible;"></use> </clipPath> <path style="clip-path:url(#SVGID_00000040550906892978213960000006226462715677783714_);" d="M-250.4,9c2.5,4.3,1,9.8-3.3,12.3 c-4.3,2.5-9.8,1-12.3-3.3c-2.5-4.3-1-9.8,3.3-12.3C-258.4,3.2-252.9,4.7-250.4,9"></path> </g> <g class="st3"> <defs> <polygon id="SVGID_00000075121817453196624720000006062492003157460151_" points="-257.3,13.2 -241.6,6.6 -241,8.1 "></polygon> </defs> <clipPath id="SVGID_00000012444205621187314110000002826450240435623354_"> <use xlink:href="#SVGID_00000075121817453196624720000006062492003157460151_" style="overflow:visible;"></use> </clipPath> <path style="clip-path:url(#SVGID_00000012444205621187314110000002826450240435623354_);" d="M-249.7,10.4 c1.7,4.7-0.7,9.8-5.4,11.5c-4.7,1.7-9.8-0.7-11.5-5.4c-1.7-4.7,0.7-9.8,5.4-11.5C-256.6,3.3-251.4,5.8-249.7,10.4"></path> </g> <g class="st3"> <defs> <polygon id="SVGID_00000181773204574103253140000001968331843801605283_" points="-257.2,13.3 -240.6,9.6 -240.3,11.2 "></polygon> </defs> <clipPath id="SVGID_00000018238501584169179430000003228690067214362506_"> <use xlink:href="#SVGID_00000181773204574103253140000001968331843801605283_" style="overflow:visible;"></use> </clipPath> <path style="clip-path:url(#SVGID_00000018238501584169179430000003228690067214362506_);" d="M-249.3,11.9 c0.9,4.9-2.4,9.6-7.3,10.4c-4.9,0.9-9.6-2.4-10.4-7.3c-0.9-4.9,2.4-9.6,7.3-10.4C-254.9,3.8-250.2,7-249.3,11.9"></path> </g> <path class="st23" d="M1517.8,333.3c0,5-4,9-9,9c-5,0-9-4-9-9s4-9,9-9C1513.8,324.3,1517.8,328.3,1517.8,333.3"></path> <circle class="st24" cx="1508.8" cy="333.3" r="9"></circle> <g class="st3"> <defs> <polygon id="SVGID_00000091737399401914084020000005737897159659304339_" points="1509.8,333.3 1526.8,332.5 1526.8,334.1 "></polygon> </defs> <clipPath id="SVGID_00000173869664639839411980000005739631879949178786_"> <use xlink:href="#SVGID_00000091737399401914084020000005737897159659304339_" style="overflow:visible;"></use> </clipPath> <path style="clip-path:url(#SVGID_00000173869664639839411980000005739631879949178786_);" d="M1517.8,333.3c0,5-4,9-9,9 c-5,0-9-4-9-9s4-9,9-9C1513.8,324.3,1517.8,328.3,1517.8,333.3"></path> </g> <g class="st3"> <defs> <polygon id="SVGID_00000001640517196537663570000001420006206157616573_" points="1509.8,333.5 1526.7,335.6 1526.4,337.2 "></polygon> </defs> <clipPath id="SVGID_00000127766216534979591640000009536994643887746176_"> <use xlink:href="#SVGID_00000001640517196537663570000001420006206157616573_" style="overflow:visible;"></use> </clipPath> <path style="clip-path:url(#SVGID_00000127766216534979591640000009536994643887746176_);" d="M1517.7,334.9 c-0.9,4.9-5.5,8.2-10.4,7.3c-4.9-0.9-8.2-5.5-7.3-10.4c0.9-4.9,5.5-8.2,10.4-7.3C1515.3,325.3,1518.5,330,1517.7,334.9"></path> </g> <g class="st3"> <defs> <polygon id="SVGID_00000179647202755286920320000014626512214347002000_" points="1509.7,333.6 1526,338.7 1525.4,340.2 "></polygon> </defs> <clipPath id="SVGID_00000170977310052735254450000009313801442714197927_"> <use xlink:href="#SVGID_00000179647202755286920320000014626512214347002000_" style="overflow:visible;"></use> </clipPath> <path style="clip-path:url(#SVGID_00000170977310052735254450000009313801442714197927_);" d="M1517.3,336.4 c-1.7,4.7-6.9,7.1-11.5,5.4c-4.7-1.7-7.1-6.9-5.4-11.5c1.7-4.7,6.9-7.1,11.5-5.4C1516.6,326.5,1519,331.7,1517.3,336.4"></path> </g> <g class="st3"> <defs> <polygon id="SVGID_00000085230620166346136900000011924847663115197572_" points="1509.7,333.8 1524.8,341.6 1524,343 "></polygon> </defs> <clipPath id="SVGID_00000062874677535543726040000015173712168810190501_"> <use xlink:href="#SVGID_00000085230620166346136900000011924847663115197572_" style="overflow:visible;"></use> </clipPath> <path style="clip-path:url(#SVGID_00000062874677535543726040000015173712168810190501_);" d="M1516.6,337.8 c-2.5,4.3-8,5.8-12.3,3.3c-4.3-2.5-5.8-8-3.3-12.3c2.5-4.3,8-5.8,12.3-3.3C1517.6,328,1519.1,333.5,1516.6,337.8"></path> </g> <g class="st3"> <defs> <polygon id="SVGID_00000173146617861628667090000007603669123857605050_" points="1509.6,333.9 1523.1,344.3 1522.1,345.5 "></polygon> </defs> <clipPath id="SVGID_00000015341690507196561520000008065706828919519378_"> <use xlink:href="#SVGID_00000173146617861628667090000007603669123857605050_" style="overflow:visible;"></use> </clipPath> <path style="clip-path:url(#SVGID_00000015341690507196561520000008065706828919519378_);" d="M1515.7,339.1 c-3.2,3.8-8.9,4.3-12.7,1.1c-3.8-3.2-4.3-8.9-1.1-12.7c3.2-3.8,8.9-4.3,12.7-1.1C1518.4,329.6,1518.9,335.3,1515.7,339.1"></path> </g> <g class="st3"> <defs> <polygon id="SVGID_00000091732406382504577350000012962982116457756301_" points="1509.5,334.1 1521,346.6 1519.8,347.6 "></polygon> </defs> <clipPath id="SVGID_00000028311796917058925110000015155624268468472254_"> <use xlink:href="#SVGID_00000091732406382504577350000012962982116457756301_" style="overflow:visible;"></use> </clipPath> <path style="clip-path:url(#SVGID_00000028311796917058925110000015155624268468472254_);" d="M1514.6,340.2 c-3.8,3.2-9.5,2.7-12.7-1.1c-3.2-3.8-2.7-9.5,1.1-12.7s9.5-2.7,12.7,1.1C1518.9,331.3,1518.4,337,1514.6,340.2"></path> </g> <g class="st3"> <defs> <polygon id="SVGID_00000065779972246071683840000011102056774883504001_" points="1509.3,334.2 1518.5,348.5 1517.1,349.3 "></polygon> </defs> <clipPath id="SVGID_00000146498080643247954950000013460690385134095503_"> <use xlink:href="#SVGID_00000065779972246071683840000011102056774883504001_" style="overflow:visible;"></use> </clipPath> <path style="clip-path:url(#SVGID_00000146498080643247954950000013460690385134095503_);" d="M1513.3,341.1 c-4.3,2.5-9.8,1-12.3-3.3c-2.5-4.3-1-9.8,3.3-12.3c4.3-2.5,9.8-1,12.3,3.3C1519.1,333.1,1517.6,338.6,1513.3,341.1"></path> </g> <g class="st3"> <defs> <polygon id="SVGID_00000014619443074042785790000010049838407832377476_" points="1509.1,334.2 1515.7,349.9 1514.2,350.5 "></polygon> </defs> <clipPath id="SVGID_00000065047611797057702960000008163886801245159606_"> <use xlink:href="#SVGID_00000014619443074042785790000010049838407832377476_" style="overflow:visible;"></use> </clipPath> <path style="clip-path:url(#SVGID_00000065047611797057702960000008163886801245159606_);" d="M1511.9,341.8 c-4.7,1.7-9.8-0.7-11.5-5.4c-1.7-4.7,0.7-9.8,5.4-11.5c4.7-1.7,9.8,0.7,11.5,5.4C1519,334.9,1516.6,340.1,1511.9,341.8"></path> </g> <g class="st3"> <defs> <polygon id="SVGID_00000164497125354512463260000009893384145242670730_" points="1509,334.3 1512.7,350.9 1511.2,351.1 "></polygon> </defs> <clipPath id="SVGID_00000170967758398726580590000012231143638530014131_"> <use xlink:href="#SVGID_00000164497125354512463260000009893384145242670730_" style="overflow:visible;"></use> </clipPath> <path style="clip-path:url(#SVGID_00000170967758398726580590000012231143638530014131_);" d="M1510.4,342.2 c-4.9,0.9-9.6-2.4-10.4-7.3c-0.9-4.9,2.4-9.6,7.3-10.4c4.9-0.9,9.6,2.4,10.4,7.3C1518.5,336.6,1515.3,341.3,1510.4,342.2"></path> </g> <g class="st3"> <defs> <polygon id="SVGID_00000073687552741837981420000015121953099864010909_" points="1508.8,334.3 1509.6,351.3 1508,351.3 "></polygon> </defs> <clipPath id="SVGID_00000008131587824937314200000002221283026269239942_"> <use xlink:href="#SVGID_00000073687552741837981420000015121953099864010909_" style="overflow:visible;"></use> </clipPath> <path style="clip-path:url(#SVGID_00000008131587824937314200000002221283026269239942_);" d="M1508.8,342.3c-5,0-9-4-9-9s4-9,9-9 c5,0,9,4,9,9S1513.8,342.3,1508.8,342.3"></path> </g> <g class="st3"> <defs> <polygon id="SVGID_00000165236509324237623200000004693375652353663888_" points="1508.6,334.3 1506.5,351.1 1504.9,350.9 "></polygon> </defs> <clipPath id="SVGID_00000056408039997368618910000014339893468268572035_"> <use xlink:href="#SVGID_00000165236509324237623200000004693375652353663888_" style="overflow:visible;"></use> </clipPath> <path style="clip-path:url(#SVGID_00000056408039997368618910000014339893468268572035_);" d="M1507.2,342.2 c-4.9-0.9-8.2-5.5-7.3-10.4c0.9-4.9,5.5-8.2,10.4-7.3c4.9,0.9,8.2,5.5,7.3,10.4C1516.8,339.8,1512.1,343,1507.2,342.2"></path> </g> <g class="st3"> <defs> <polygon id="SVGID_00000036221750329944700200000002918197833067602339_" points="1508.5,334.2 1503.4,350.5 1501.9,349.9 "></polygon> </defs> <clipPath id="SVGID_00000112601690671271792270000001744217271551709059_"> <use xlink:href="#SVGID_00000036221750329944700200000002918197833067602339_" style="overflow:visible;"></use> </clipPath> <path style="clip-path:url(#SVGID_00000112601690671271792270000001744217271551709059_);" d="M1505.7,341.8 c-4.7-1.7-7.1-6.9-5.4-11.5c1.7-4.7,6.9-7.1,11.5-5.4c4.7,1.7,7.1,6.9,5.4,11.5C1515.6,341,1510.4,343.5,1505.7,341.8"></path> </g> <g class="st3"> <defs> <polygon id="SVGID_00000088817390595924047410000013208462006156295355_" points="1508.3,334.2 1500.5,349.3 1499.1,348.5 "></polygon> </defs> <clipPath id="SVGID_00000124856977736003881390000016123355272392959387_"> <use xlink:href="#SVGID_00000088817390595924047410000013208462006156295355_" style="overflow:visible;"></use> </clipPath> <path style="clip-path:url(#SVGID_00000124856977736003881390000016123355272392959387_);" d="M1504.3,341.1 c-4.3-2.5-5.8-8-3.3-12.3c2.5-4.3,8-5.8,12.3-3.3c4.3,2.5,5.8,8,3.3,12.3C1514.1,342.1,1508.6,343.6,1504.3,341.1"></path> </g> <g class="st3"> <defs> <polygon id="SVGID_00000118363388546445130680000014293387515522953366_" points="1508.2,334.1 1497.8,347.6 1496.6,346.6 "></polygon> </defs> <clipPath id="SVGID_00000150099460020044937940000001598201102612716692_"> <use xlink:href="#SVGID_00000118363388546445130680000014293387515522953366_" style="overflow:visible;"></use> </clipPath> <path style="clip-path:url(#SVGID_00000150099460020044937940000001598201102612716692_);" d="M1503,340.2 c-3.8-3.2-4.3-8.9-1.1-12.7c3.2-3.8,8.9-4.3,12.7-1.1s4.3,8.9,1.1,12.7C1512.5,342.9,1506.8,343.4,1503,340.2"></path> </g> <g class="st3"> <defs> <polygon id="SVGID_00000087373636216133183430000011643626934311266238_" points="1508,333.9 1495.5,345.5 1494.5,344.3 "></polygon> </defs> <clipPath id="SVGID_00000130613822320867890100000004042282830178242222_"> <use xlink:href="#SVGID_00000087373636216133183430000011643626934311266238_" style="overflow:visible;"></use> </clipPath> <path style="clip-path:url(#SVGID_00000130613822320867890100000004042282830178242222_);" d="M1501.9,339.1 c-3.2-3.8-2.7-9.5,1.1-12.7c3.8-3.2,9.5-2.7,12.7,1.1c3.2,3.8,2.7,9.5-1.1,12.7C1510.8,343.4,1505.1,342.9,1501.9,339.1"></path> </g> <g class="st3"> <defs> <polygon id="SVGID_00000145738684164761950040000004789458115553134265_" points="1507.9,333.8 1493.6,343 1492.8,341.6 "></polygon> </defs> <clipPath id="SVGID_00000009579628399096334550000015842230460888444295_"> <use xlink:href="#SVGID_00000145738684164761950040000004789458115553134265_" style="overflow:visible;"></use> </clipPath> <path style="clip-path:url(#SVGID_00000009579628399096334550000015842230460888444295_);" d="M1501,337.8 c-2.5-4.3-1-9.8,3.3-12.3c4.3-2.5,9.8-1,12.3,3.3c2.5,4.3,1,9.8-3.3,12.3C1509,343.6,1503.5,342.1,1501,337.8"></path> </g> <g class="st3"> <defs> <polygon id="SVGID_00000147211221890208721220000010874353910076011414_" points="1507.9,333.6 1492.2,340.2 1491.6,338.7 "></polygon> </defs> <clipPath id="SVGID_00000153693995795446807910000011990678294685207434_"> <use xlink:href="#SVGID_00000147211221890208721220000010874353910076011414_" style="overflow:visible;"></use> </clipPath> <path style="clip-path:url(#SVGID_00000153693995795446807910000011990678294685207434_);" d="M1500.3,336.4 c-1.7-4.7,0.7-9.8,5.4-11.5c4.7-1.7,9.8,0.7,11.5,5.4c1.7,4.7-0.7,9.8-5.4,11.5C1507.2,343.5,1502,341,1500.3,336.4"></path> </g> <g class="st3"> <defs> <polygon id="SVGID_00000145777973875918612480000004549201607789184669_" points="1507.8,333.5 1491.2,337.2 1491,335.6 "></polygon> </defs> <clipPath id="SVGID_00000096773188425777171420000000659591703390839458_"> <use xlink:href="#SVGID_00000145777973875918612480000004549201607789184669_" style="overflow:visible;"></use> </clipPath> <path style="clip-path:url(#SVGID_00000096773188425777171420000000659591703390839458_);" d="M1499.9,334.9 c-0.9-4.9,2.4-9.6,7.3-10.4c4.9-0.9,9.6,2.4,10.4,7.3c0.9,4.9-2.4,9.6-7.3,10.4C1505.5,343,1500.8,339.8,1499.9,334.9"></path> </g> <g class="st3"> <defs> <polygon id="SVGID_00000088824597126898545400000008871354231138857862_" points="1507.8,333.3 1490.8,334.1 1490.8,332.5 "></polygon> </defs> <clipPath id="SVGID_00000044156800029862362740000004191413484398091908_"> <use xlink:href="#SVGID_00000088824597126898545400000008871354231138857862_" style="overflow:visible;"></use> </clipPath> <path style="clip-path:url(#SVGID_00000044156800029862362740000004191413484398091908_);" d="M1499.8,333.3c0-5,4-9,9-9 c5,0,9,4,9,9s-4,9-9,9C1503.8,342.3,1499.8,338.3,1499.8,333.3"></path> </g> <g class="st3"> <defs> <polygon id="SVGID_00000143605264686886776960000012348413937649166989_" points="1507.8,333.1 1491,331 1491.2,329.4 "></polygon> </defs> <clipPath id="SVGID_00000085933797761143623640000018147785708184260019_"> <use xlink:href="#SVGID_00000143605264686886776960000012348413937649166989_" style="overflow:visible;"></use> </clipPath> <path style="clip-path:url(#SVGID_00000085933797761143623640000018147785708184260019_);" d="M1499.9,331.7 c0.9-4.9,5.5-8.2,10.4-7.3c4.9,0.9,8.2,5.5,7.3,10.4c-0.9,4.9-5.5,8.2-10.4,7.3C1502.3,341.3,1499.1,336.6,1499.9,331.7"></path> </g> <g class="st3"> <defs> <polygon id="SVGID_00000137828243052034617260000015952906812622684584_" points="1507.9,333 1491.6,327.9 1492.2,326.4 "></polygon> </defs> <clipPath id="SVGID_00000136391985256887934480000003267464601829892761_"> <use xlink:href="#SVGID_00000137828243052034617260000015952906812622684584_" style="overflow:visible;"></use> </clipPath> <path style="clip-path:url(#SVGID_00000136391985256887934480000003267464601829892761_);" d="M1500.3,330.2 c1.7-4.7,6.9-7.1,11.5-5.4c4.7,1.7,7.1,6.9,5.4,11.5c-1.7,4.7-6.9,7.1-11.5,5.4C1501.1,340.1,1498.6,334.9,1500.3,330.2"></path> </g> <g class="st3"> <defs> <polygon id="SVGID_00000183934358342294624440000002410715549070645147_" points="1507.9,332.8 1492.8,325 1493.6,323.6 "></polygon> </defs> <clipPath id="SVGID_00000107578932585355656170000004390633753829908917_"> <use xlink:href="#SVGID_00000183934358342294624440000002410715549070645147_" style="overflow:visible;"></use> </clipPath> <path style="clip-path:url(#SVGID_00000107578932585355656170000004390633753829908917_);" d="M1501,328.8c2.5-4.3,8-5.8,12.3-3.3 c4.3,2.5,5.8,8,3.3,12.3c-2.5,4.3-8,5.8-12.3,3.3C1500,338.6,1498.5,333.1,1501,328.8"></path> </g> <g class="st3"> <defs> <polygon id="SVGID_00000088109344720009876150000016465633990690371225_" points="1508,332.7 1494.5,322.3 1495.5,321.1 "></polygon> </defs> <clipPath id="SVGID_00000153664914285939997630000008801648191218081196_"> <use xlink:href="#SVGID_00000088109344720009876150000016465633990690371225_" style="overflow:visible;"></use> </clipPath> <path style="clip-path:url(#SVGID_00000153664914285939997630000008801648191218081196_);" d="M1501.9,327.5 c3.2-3.8,8.9-4.3,12.7-1.1c3.8,3.2,4.3,8.9,1.1,12.7c-3.2,3.8-8.9,4.3-12.7,1.1C1499.2,337,1498.7,331.3,1501.9,327.5"></path> </g> <g class="st3"> <defs> <polygon id="SVGID_00000112618395872276421500000013275302646907838129_" points="1508.2,332.5 1496.6,320 1497.8,319 "></polygon> </defs> <clipPath id="SVGID_00000156568055928370384580000010013194567402661767_"> <use xlink:href="#SVGID_00000112618395872276421500000013275302646907838129_" style="overflow:visible;"></use> </clipPath> <path style="clip-path:url(#SVGID_00000156568055928370384580000010013194567402661767_);" d="M1503,326.4 c3.8-3.2,9.5-2.7,12.7,1.1c3.2,3.8,2.7,9.5-1.1,12.7s-9.5,2.7-12.7-1.1C1498.7,335.3,1499.2,329.6,1503,326.4"></path> </g> <g class="st3"> <defs> <polygon id="SVGID_00000069393974085937362010000010823666156500848513_" points="1508.3,332.4 1499.1,318.1 1500.5,317.3 "></polygon> </defs> <clipPath id="SVGID_00000145755797028367550150000012926375818701503378_"> <use xlink:href="#SVGID_00000069393974085937362010000010823666156500848513_" style="overflow:visible;"></use> </clipPath> <path style="clip-path:url(#SVGID_00000145755797028367550150000012926375818701503378_);" d="M1504.3,325.5 c4.3-2.5,9.8-1,12.3,3.3c2.5,4.3,1,9.8-3.3,12.3c-4.3,2.5-9.8,1-12.3-3.3C1498.5,333.5,1500,328,1504.3,325.5"></path> </g> <g class="st3"> <defs> <polygon id="SVGID_00000127747116767160938770000012278260884346152837_" points="1508.5,332.4 1501.9,316.7 1503.4,316.1 "></polygon> </defs> <clipPath id="SVGID_00000114049403534214643820000016046073312904796565_"> <use xlink:href="#SVGID_00000127747116767160938770000012278260884346152837_" style="overflow:visible;"></use> </clipPath> <path style="clip-path:url(#SVGID_00000114049403534214643820000016046073312904796565_);" d="M1505.7,324.8 c4.7-1.7,9.8,0.7,11.5,5.4c1.7,4.7-0.7,9.8-5.4,11.5c-4.7,1.7-9.8-0.7-11.5-5.4C1498.6,331.7,1501.1,326.5,1505.7,324.8"></path> </g> <g class="st3"> <defs> <polygon id="SVGID_00000016069246996888244970000010257146196645427120_" points="1508.6,332.3 1504.9,315.7 1506.5,315.5 "></polygon> </defs> <clipPath id="SVGID_00000044887283635568180910000015371845207851503778_"> <use xlink:href="#SVGID_00000016069246996888244970000010257146196645427120_" style="overflow:visible;"></use> </clipPath> <path style="clip-path:url(#SVGID_00000044887283635568180910000015371845207851503778_);" d="M1507.2,324.4 c4.9-0.9,9.6,2.4,10.4,7.3c0.9,4.9-2.4,9.6-7.3,10.4c-4.9,0.9-9.6-2.4-10.4-7.3C1499.1,330,1502.3,325.3,1507.2,324.4"></path> </g> <g class="st3"> <defs> <polygon id="SVGID_00000173842153578785641460000013070019133533542567_" points="1508.8,332.3 1508,315.3 1509.6,315.3 "></polygon> </defs> <clipPath id="SVGID_00000054239903020690243280000013396568153956317091_"> <use xlink:href="#SVGID_00000173842153578785641460000013070019133533542567_" style="overflow:visible;"></use> </clipPath> <path style="clip-path:url(#SVGID_00000054239903020690243280000013396568153956317091_);" d="M1508.8,324.3c5,0,9,4,9,9s-4,9-9,9 c-5,0-9-4-9-9S1503.8,324.3,1508.8,324.3"></path> </g> <g class="st3"> <defs> <polygon id="SVGID_00000057122802869498416750000017985684947468270464_" points="1509,332.3 1511.2,315.5 1512.7,315.7 "></polygon> </defs> <clipPath id="SVGID_00000159446612618517412810000003825497883870103943_"> <use xlink:href="#SVGID_00000057122802869498416750000017985684947468270464_" style="overflow:visible;"></use> </clipPath> <path style="clip-path:url(#SVGID_00000159446612618517412810000003825497883870103943_);" d="M1510.4,324.4 c4.9,0.9,8.2,5.5,7.3,10.4c-0.9,4.9-5.5,8.2-10.4,7.3c-4.9-0.9-8.2-5.5-7.3-10.4C1500.8,326.8,1505.5,323.6,1510.4,324.4"></path> </g> <g class="st3"> <defs> <polygon id="SVGID_00000116942838300833661180000014365501731108594581_" points="1509.1,332.4 1514.2,316.1 1515.7,316.7 "></polygon> </defs> <clipPath id="SVGID_00000112600543815679262680000001812572180495338907_"> <use xlink:href="#SVGID_00000116942838300833661180000014365501731108594581_" style="overflow:visible;"></use> </clipPath> <path style="clip-path:url(#SVGID_00000112600543815679262680000001812572180495338907_);" d="M1511.9,324.8 c4.7,1.7,7.1,6.9,5.4,11.5c-1.7,4.7-6.9,7.1-11.5,5.4c-4.7-1.7-7.1-6.9-5.4-11.5C1502.1,325.6,1507.2,323.1,1511.9,324.8"></path> </g> <g class="st3"> <defs> <polygon id="SVGID_00000036932139857931624300000007847384164541326745_" points="1509.3,332.4 1517.1,317.3 1518.5,318.1 "></polygon> </defs> <clipPath id="SVGID_00000101789235673108894810000003407724256363878330_"> <use xlink:href="#SVGID_00000036932139857931624300000007847384164541326745_" style="overflow:visible;"></use> </clipPath> <path style="clip-path:url(#SVGID_00000101789235673108894810000003407724256363878330_);" d="M1513.3,325.5 c4.3,2.5,5.8,8,3.3,12.3c-2.5,4.3-8,5.8-12.3,3.3c-4.3-2.5-5.8-8-3.3-12.3C1503.5,324.5,1509,323,1513.3,325.5"></path> </g> <g class="st3"> <defs> <polygon id="SVGID_00000008857774728643157000000014187556467833405573_" points="1509.5,332.5 1519.8,319 1521,320 "></polygon> </defs> <clipPath id="SVGID_00000170250801801339124730000000857846269362970536_"> <use xlink:href="#SVGID_00000008857774728643157000000014187556467833405573_" style="overflow:visible;"></use> </clipPath> <path style="clip-path:url(#SVGID_00000170250801801339124730000000857846269362970536_);" d="M1514.6,326.4 c3.8,3.2,4.3,8.9,1.1,12.7c-3.2,3.8-8.9,4.3-12.7,1.1s-4.3-8.9-1.1-12.7C1505.1,323.7,1510.8,323.2,1514.6,326.4"></path> </g> <g class="st3"> <defs> <polygon id="SVGID_00000036223075283367134060000015883706285382214280_" points="1509.6,332.7 1522.1,321.1 1523.1,322.3 "></polygon> </defs> <clipPath id="SVGID_00000051349888335222923340000013012349330031089545_"> <use xlink:href="#SVGID_00000036223075283367134060000015883706285382214280_" style="overflow:visible;"></use> </clipPath> <path style="clip-path:url(#SVGID_00000051349888335222923340000013012349330031089545_);" d="M1515.7,327.5 c3.2,3.8,2.7,9.5-1.1,12.7c-3.8,3.2-9.5,2.7-12.7-1.1c-3.2-3.8-2.7-9.5,1.1-12.7C1506.8,323.2,1512.5,323.7,1515.7,327.5"></path> </g> <g class="st3"> <defs> <polygon id="SVGID_00000062899644489369821020000008170515196625912468_" points="1509.7,332.8 1524,323.6 1524.8,325 "></polygon> </defs> <clipPath id="SVGID_00000091001173945562347980000004268960468470480303_"> <use xlink:href="#SVGID_00000062899644489369821020000008170515196625912468_" style="overflow:visible;"></use> </clipPath> <path style="clip-path:url(#SVGID_00000091001173945562347980000004268960468470480303_);" d="M1516.6,328.8 c2.5,4.3,1,9.8-3.3,12.3c-4.3,2.5-9.8,1-12.3-3.3c-2.5-4.3-1-9.8,3.3-12.3C1508.6,323,1514.1,324.5,1516.6,328.8"></path> </g> <g class="st3"> <defs> <polygon id="SVGID_00000176748181227196385650000012524974809799594930_" points="1509.7,333 1525.4,326.4 1526,327.9 "></polygon> </defs> <clipPath id="SVGID_00000015341105108547551600000014173714497009674644_"> <use xlink:href="#SVGID_00000176748181227196385650000012524974809799594930_" style="overflow:visible;"></use> </clipPath> <path style="clip-path:url(#SVGID_00000015341105108547551600000014173714497009674644_);" d="M1517.3,330.2 c1.7,4.7-0.7,9.8-5.4,11.5c-4.7,1.7-9.8-0.7-11.5-5.4c-1.7-4.7,0.7-9.8,5.4-11.5C1510.4,323.1,1515.6,325.6,1517.3,330.2"></path> </g> <g class="st3"> <defs> <polygon id="SVGID_00000114050562365073721100000010467397316574770604_" points="1509.8,333.1 1526.4,329.4 1526.7,331 "></polygon> </defs> <clipPath id="SVGID_00000173879507120262413670000005943739426238892448_"> <use xlink:href="#SVGID_00000114050562365073721100000010467397316574770604_" style="overflow:visible;"></use> </clipPath> <path style="clip-path:url(#SVGID_00000173879507120262413670000005943739426238892448_);" d="M1517.7,331.7 c0.9,4.9-2.4,9.6-7.3,10.4c-4.9,0.9-9.6-2.4-10.4-7.3c-0.9-4.9,2.4-9.6,7.3-10.4C1512.1,323.6,1516.8,326.8,1517.7,331.7"></path> </g> </g> <g id="Layer_2" class="st0"> </g> <g id="of_alabama"> <g> <path class="st97" d="M99.6,304.9c-3.7-1.5-6.5-3.8-8.5-6.8c-2-3-2.9-6.6-2.9-10.8c0-4.3,1-7.9,3-10.9c2-3,4.8-5.4,8.5-6.9 c3.7-1.6,8-2.4,13.1-2.4c5,0,9.3,0.8,13,2.4c3.7,1.6,6.5,3.9,8.5,6.9c2,3,2.9,6.7,2.9,10.9c0,4.2-1,7.8-2.9,10.8 c-2,3-4.8,5.3-8.5,6.8c-3.7,1.6-8,2.3-13.1,2.3C107.6,307.2,103.3,306.4,99.6,304.9z M125.3,299.4c2.8-2.6,4.1-6.7,4.1-12.1 c0-5.6-1.4-9.7-4.2-12.4c-2.8-2.7-7-4-12.5-4c-5.6,0-9.8,1.4-12.6,4.1c-2.8,2.7-4.2,6.8-4.2,12.3c0,5.4,1.4,9.5,4.2,12.1 c2.8,2.6,7,4,12.7,4C118.4,303.3,122.6,302,125.3,299.4z"></path> <path class="st97" d="M202.7,267.5h34c0.5,0,0.8,0.2,0.8,0.6v2.7c0,0.4-0.3,0.6-1,0.6h-26.3c-0.4,0-0.7,0-0.8,0.1 c-0.1,0.1-0.2,0.3-0.2,0.5v13c0,0.4,0.3,0.6,0.8,0.6h20.6c0.6,0,0.8,0.2,0.8,0.5v2.8c0,0.2-0.1,0.3-0.2,0.4 c-0.1,0.1-0.3,0.1-0.7,0.1H210c-0.6,0-0.8,0.2-0.8,0.6v16c0,0.5-0.4,0.7-1.1,0.7h-5.3c-0.4,0-0.7-0.1-0.8-0.2 c-0.2-0.1-0.2-0.3-0.2-0.6v-37.7C201.8,267.8,202.1,267.5,202.7,267.5z"></path> <path class="st97" d="M365,306.4c-0.2-0.2-0.2-0.4,0-0.7l20-37.5c0.2-0.3,0.3-0.5,0.5-0.6c0.2-0.1,0.5-0.2,1-0.2h6 c1,0,1.6,0.3,1.8,0.8l19.8,37.4l0.1,0.3c0,0.4-0.3,0.6-0.9,0.6h-5.5c-0.6,0-1-0.2-1.2-0.5l-5.3-10.2c-0.1-0.1-0.2-0.2-0.3-0.3 c-0.1-0.1-0.3-0.1-0.6-0.1h-22.5c-0.5,0-0.8,0.1-0.9,0.4l-5.5,10.3c-0.2,0.3-0.5,0.5-1.2,0.5h-4.6 C365.4,306.6,365.2,306.6,365,306.4z M398.4,291.5c0.6,0,0.8-0.2,0.6-0.7l-9.3-17.3c-0.2-0.3-0.3-0.5-0.5-0.5 c-0.2,0-0.4,0.2-0.5,0.5l-9.4,17.5l-0.2,0.3c0,0.2,0.2,0.3,0.6,0.3H398.4z"></path> <path class="st97" d="M478.1,267.5h5.6c0.6,0,0.9,0.2,0.9,0.7v34c0,0.2,0.1,0.4,0.2,0.4c0.1,0.1,0.3,0.1,0.6,0.1h26.7 c0.3,0,0.5,0,0.7,0.1c0.2,0.1,0.2,0.2,0.2,0.4v2.8c0,0.4-0.3,0.6-0.9,0.6h-33.8c-0.4,0-0.7-0.1-0.8-0.2c-0.2-0.1-0.2-0.3-0.2-0.6 v-37.7C477.2,267.8,477.5,267.5,478.1,267.5z"></path> <path class="st97" d="M571.9,306.4c-0.2-0.2-0.2-0.4,0-0.7l20-37.5c0.2-0.3,0.3-0.5,0.5-0.6c0.2-0.1,0.5-0.2,1-0.2h6 c1,0,1.6,0.3,1.8,0.8l19.8,37.4l0.1,0.3c0,0.4-0.3,0.6-0.9,0.6h-5.5c-0.6,0-1-0.2-1.2-0.5l-5.3-10.2c-0.1-0.1-0.2-0.2-0.3-0.3 c-0.1-0.1-0.3-0.1-0.6-0.1h-22.5c-0.5,0-0.8,0.1-0.9,0.4l-5.5,10.3c-0.2,0.3-0.5,0.5-1.2,0.5h-4.6 C572.3,306.6,572,306.6,571.9,306.4z M605.2,291.5c0.6,0,0.8-0.2,0.6-0.7l-9.3-17.3c-0.2-0.3-0.3-0.5-0.5-0.5 c-0.2,0-0.4,0.2-0.5,0.5l-9.4,17.5l-0.2,0.3c0,0.2,0.2,0.3,0.6,0.3H605.2z"></path> <path class="st97" d="M684.3,306.5c-0.2-0.1-0.3-0.3-0.3-0.4v-37.8c0-0.5,0.3-0.7,1-0.7h17.8c6.9,0,12.1,0.9,15.9,2.6 c3.7,1.7,5.6,4.2,5.6,7.5c0,2.1-0.8,3.9-2.5,5.4c-1.6,1.4-4.2,2.6-7.6,3.4c-0.2,0-0.3,0.1-0.3,0.2s0.1,0.2,0.3,0.2 c7.7,1.3,11.5,4.4,11.5,9.3c0,3.5-1.9,6.1-5.7,7.8c-3.8,1.7-9.3,2.6-16.6,2.6H685C684.7,306.6,684.5,306.6,684.3,306.5z M703.9,285c3.6,0,6.7-0.5,9.2-1.6c2.5-1.1,3.8-2.8,3.8-5.2c0-2.3-1.2-4.1-3.7-5.2s-5.9-1.8-10.3-1.8h-10.4c-0.7,0-1,0.2-1,0.6 v12.4c0,0.5,0.2,0.7,0.7,0.7H703.9z M703.1,303c5,0,8.8-0.6,11.3-1.7c2.5-1.1,3.7-2.9,3.7-5.2c0-2.5-1.3-4.3-3.9-5.5 c-2.6-1.2-6-1.8-10.3-1.8h-11.4c-0.4,0-0.7,0-0.9,0.1s-0.2,0.3-0.2,0.5v12.8c0,0.3,0.1,0.5,0.2,0.6c0.1,0.1,0.3,0.2,0.5,0.2H703.1 z"></path> <path class="st97" d="M786.2,306.4c-0.2-0.2-0.2-0.4,0-0.7l20-37.5c0.2-0.3,0.3-0.5,0.5-0.6c0.2-0.1,0.5-0.2,1-0.2h6 c1,0,1.6,0.3,1.8,0.8l19.8,37.4l0.1,0.3c0,0.4-0.3,0.6-0.8,0.6h-5.5c-0.6,0-1-0.2-1.2-0.5l-5.3-10.2c-0.1-0.1-0.2-0.2-0.3-0.3 c-0.1-0.1-0.3-0.1-0.6-0.1h-22.5c-0.5,0-0.8,0.1-0.9,0.4l-5.5,10.3c-0.2,0.3-0.5,0.5-1.2,0.5h-4.6 C786.6,306.6,786.3,306.6,786.2,306.4z M819.6,291.5c0.6,0,0.8-0.2,0.6-0.7l-9.3-17.3c-0.2-0.3-0.3-0.5-0.5-0.5 c-0.2,0-0.4,0.2-0.5,0.5l-9.4,17.5l-0.2,0.3c0,0.2,0.2,0.3,0.6,0.3H819.6z"></path> <path class="st97" d="M898.4,305.9v-37.6c0-0.3,0.1-0.5,0.2-0.6c0.1-0.1,0.4-0.2,0.7-0.2h7.4c0.4,0,0.7,0,0.9,0.1 c0.2,0.1,0.3,0.2,0.4,0.4l17.2,30.2c0.2,0.3,0.3,0.5,0.5,0.5c0.3,0,0.5-0.2,0.7-0.5l17.2-30.1c0.2-0.5,0.5-0.7,1.2-0.7h7.8 c0.6,0,0.8,0.2,0.8,0.7v37.7c0,0.5-0.4,0.8-1.2,0.8h-5.1c-0.8,0-1.2-0.2-1.2-0.7v-30.2c0-0.2,0-0.3-0.1-0.2s-0.2,0.1-0.3,0.2 l-17,30.2c-0.3,0.5-0.8,0.7-1.5,0.7h-3.7c-0.8,0-1.3-0.2-1.5-0.6l-16.8-29.9c-0.1-0.2-0.1-0.3-0.2-0.3s-0.2,0.1-0.2,0.3V306 c0,0.2-0.1,0.4-0.2,0.5s-0.4,0.2-0.8,0.2h-4.2C898.7,306.6,898.4,306.4,898.4,305.9z"></path> <path class="st97" d="M1016.5,306.4c-0.2-0.2-0.2-0.4,0-0.7l20-37.5c0.2-0.3,0.3-0.5,0.5-0.6c0.2-0.1,0.5-0.2,1-0.2h6 c1,0,1.6,0.3,1.8,0.8l19.8,37.4l0.1,0.3c0,0.4-0.3,0.6-0.8,0.6h-5.5c-0.6,0-1-0.2-1.2-0.5l-5.3-10.2c-0.1-0.1-0.2-0.2-0.3-0.3 c-0.1-0.1-0.3-0.1-0.6-0.1h-22.5c-0.5,0-0.8,0.1-0.9,0.4l-5.5,10.3c-0.2,0.3-0.5,0.5-1.2,0.5h-4.6 C1016.9,306.6,1016.7,306.6,1016.5,306.4z M1049.9,291.5c0.6,0,0.8-0.2,0.6-0.7l-9.3-17.3c-0.2-0.3-0.3-0.5-0.5-0.5 c-0.2,0-0.4,0.2-0.5,0.5l-9.4,17.5l-0.2,0.3c0,0.2,0.2,0.3,0.6,0.3H1049.9z"></path> </g> </g> <g id="Layer_14"> <rect x="35.9" y="247.3" class="st97" width="1104.8" height="3.3"></rect> </g> <g id="whitebox" class="st0"> <text transform="matrix(1.0079 0 0 1 758.1308 244.3227)" class="st98 st99 st100">xcel</text> <rect x="670.3" y="-47.6" class="st23" width="886" height="477.3"></rect> </g> <g id="ENT"> <g> <path class="st97" d="M791.9,57.6c-0.7,0.7-1.5,1-2.5,1h-80.5c-1,0-1.4,0.5-1.4,1.4v54c0,1,0.5,1.4,1.4,1.4h51.6 c1,0,1.8,0.3,2.5,1c0.7,0.7,1,1.5,1,2.4v21.8c0,1-0.3,1.8-1,2.4c-0.7,0.7-1.5,1-2.5,1h-51.6c-1,0-1.4,0.5-1.4,1.4v55.2 c0,1,0.5,1.4,1.4,1.4h80.5c1,0,1.8,0.3,2.5,1c0.7,0.7,1,1.5,1,2.4v21.8c0,1-0.3,1.8-1,2.4c-0.7,0.7-1.5,1-2.5,1H677.3 c-1,0-1.8-0.3-2.5-1c-0.7-0.7-1-1.5-1-2.4V33.3c0-1,0.3-1.8,1-2.4c0.7-0.7,1.5-1,2.5-1h112.1c1,0,1.8,0.3,2.5,1 c0.7,0.7,1,1.5,1,2.4v21.8C792.9,56.1,792.6,56.9,791.9,57.6z"></path> <path class="st97" d="M922.8,30.8c0.7-0.7,1.5-1,2.5-1h26.6c1,0,1.8,0.3,2.5,1c0.7,0.7,1,1.5,1,2.4v194.2c0,1-0.3,1.8-1,2.4 c-0.7,0.7-1.5,1-2.5,1h-28.1c-1.7,0-3.1-0.9-4.1-2.6L856.6,99.6c-0.4-0.6-0.8-0.8-1.2-0.7c-0.4,0.1-0.6,0.5-0.6,1.3l0.3,127.3 c0,1-0.3,1.8-1,2.4c-0.7,0.7-1.5,1-2.5,1h-26.6c-1,0-1.8-0.3-2.5-1c-0.7-0.7-1-1.5-1-2.4V33.3c0-1,0.3-1.8,1-2.4 c0.7-0.7,1.5-1,2.5-1h27.8c1.9,0,3.3,0.9,4.1,2.6l63.4,129.3c0.4,0.6,0.8,0.8,1.2,0.7c0.4-0.1,0.6-0.5,0.6-1.3l-0.3-127.9 C921.8,32.3,922.1,31.5,922.8,30.8z"></path> <path class="st97" d="M1112.5,30.8c0.7,0.7,1,1.5,1,2.4v22.1c0,1-0.3,1.8-1,2.4c-0.7,0.7-1.5,1-2.5,1h-44.9c-1,0-1.4,0.5-1.4,1.4 v167.2c0,1-0.3,1.8-1,2.4c-0.7,0.7-1.5,1-2.5,1h-26.6c-1,0-1.8-0.3-2.5-1c-0.7-0.7-1-1.5-1-2.4V60.3c0-1-0.5-1.4-1.4-1.4h-43.2 c-1,0-1.8-0.3-2.5-1c-0.7-0.7-1-1.5-1-2.4V33.3c0-1,0.3-1.8,1-2.4c0.7-0.7,1.5-1,2.5-1H1110C1111,29.8,1111.8,30.2,1112.5,30.8z"></path> </g> </g> <g id="X"> <g> <polygon class="st101" points="282.8,155.9 320.8,84.5 318.4,84.5 299.2,84.5 296.8,84.5 261.3,156.2 300.1,230.9 302.5,230.9 320.8,230.9 323.1,230.9 "></polygon> <polygon class="st101" points="219.1,84.5 199.9,84.5 197.5,84.5 235.4,155.9 195.1,230.9 197.5,230.9 215.7,230.9 218.1,230.9 256.9,156.2 221.4,84.5 "></polygon> </g> </g> <g id="E"> <g> <path class="st101" d="M181.9,213.4v17.5H68.7V23.5h111.4V41H87.9v77.6h81.3v17.5H87.9v77.3H181.9z"></path> </g> </g> <g id="xce_copy_2"> </g> <g id="Layer_12"> <g> <path class="st102" d="M504.9,101.4c-19.7,0-38.6,11.8-40.5,46.1h75.7c0.3-2.9,0.3-6.5,0.3-8.1C540.4,115,529.3,101.4,504.9,101.4 z"></path> <path class="st101" d="M388.7,101.9c14.7,0,23.6,5.8,29.7,11.8l14.4-14.9c-5.5-6-18.9-14.9-43-14.9c-36.9,0-64.1,23.3-64.1,75.7 c0,51.3,24.1,71.5,61,71.5c25.8,0,38.6-8.6,44.7-15.2l-13.3-14.1c-6.1,6.5-15.5,11.3-29.4,11.3c-25.2,0-40.8-15.5-40.8-56.1 C347.9,117.1,364.3,101.9,388.7,101.9z"></path> <path class="st101" d="M506.9,83.9c-33.6,0-64.1,21.2-64.1,72.8c0,53.2,23.3,73.9,66.3,73.9c21.6,0,37.4-5.8,47.4-12.8l-9.7-15.7 c-6.4,5.2-20,10.7-34.9,10.7c-30.2,0-45.8-13.4-47.7-48.5h96c1.1-9.2,1.7-17.6,1.7-24.6C561.8,105.9,542.6,83.9,506.9,83.9z M540.1,147.5h-75.7c1.9-34.3,20.8-46.1,40.5-46.1c24.4,0,35.5,13.6,35.5,38C540.4,141,540.4,144.6,540.1,147.5z"></path> <path class="st101" d="M626.4,213c-11.4,0-15.8-5.5-15.8-18.1v-165h-21.4v170.5c0,18.6,10,30.1,30.8,30.1c5.8,0,13.2-0.8,18.7-3.1 l-5.2-15.4C631.5,212.6,629.1,213,626.4,213z"></path> </g> </g> <g id="xce_copy_3" class="st0"> <text transform="matrix(1.0588 0 0 1 352.6062 -317.89)" class="st98" style="font-family:'KohinoorBangla-Regular'; font-size:261.969px; letter-spacing:-12.3;">cel</text> </g> <g id="l_00000029761055750600420260000002174547354225292195_" class="st0"> <text transform="matrix(1.0079 0 0 1 854.9008 244.3227)" class="st98 st103 st100">xcel</text> </g> <g id="real_version" class="st0"> <image style="display:inline;overflow:visible;" width="310" height="80" transform="matrix(3.7755 0 0 3.7755 24.1388 7.1921)"> </image> </g> <g id="l" class="st0"> <text transform="matrix(1.0079 0 0 1 854.9008 244.3227)" class="st98 st100">xcel</text> </g> </svg> 